<?xml version="1.0" encoding="utf-8"?>
<!-- Generator: Adobe Illustrator 19.2.1, SVG Export Plug-In . SVG Version: 6.00 Build 0)  -->
<svg version="1.1"
	 id="Layer_1" inkscape:version="0.91 r13725" sodipodi:docname="bg0-ink.svg" xmlns:cc="http://creativecommons.org/ns#" xmlns:dc="http://purl.org/dc/elements/1.1/" xmlns:inkscape="http://www.inkscape.org/namespaces/inkscape" xmlns:rdf="http://www.w3.org/1999/02/22-rdf-syntax-ns#" xmlns:sodipodi="http://sodipodi.sourceforge.net/DTD/sodipodi-0.dtd" xmlns:svg="http://www.w3.org/2000/svg"
	 xmlns="http://www.w3.org/2000/svg" xmlns:xlink="http://www.w3.org/1999/xlink" x="0px" y="0px" viewBox="0 0 1000 200"
	 style="enable-background:new 0 0 1000 200;" xml:space="preserve">
<sodipodi:namedview  bordercolor="#666666" borderopacity="1" gridtolerance="10" guidetolerance="10" id="namedview13" inkscape:current-layer="Layer_1" inkscape:cx="384.5" inkscape:cy="100" inkscape:pageopacity="0" inkscape:pageshadow="2" inkscape:window-height="806" inkscape:window-maximized="0" inkscape:window-width="1292" inkscape:window-x="572" inkscape:window-y="381" inkscape:zoom="1" objecttolerance="10" pagecolor="#ffffff" showgrid="true">
	</sodipodi:namedview>
<rect id="bxgInf_x5F_10" x="36" y="20" width="27" height="27">
<title  id="title3347">Port #1</title>
</rect>
<rect id="bxgInf_x5F_9" x="72" y="20" width="20" height="20"/>
<rect id="bxgInf_x5F_8" x="98.3" y="29" width="20" height="20"/>
<rect id="bxgInf_x5F_7" x="125" y="29" width="20" height="20"/>
<rect id="bxgInf_x5F_6" x="151.8" y="29" width="20" height="20"/>
<g id="bxgInf_x5F_x_x5F_5">
	<path d="M59.5,74l-3-4c-1.2-1.5-2-2.5-2.7-3.6h-0.1c-0.7,1-1.3,2-2.5,3.6l-2.8,4H45l7.1-9.1L45.3,56h3.5l3.1,4.2
		c0.9,1.2,1.5,2.1,2.1,3h0.1c0.7-1.1,1.2-1.9,2.1-3l3.2-4.2h3.5l-7.1,8.8L63,74H59.5z"/>
</g>
<g id="bxgInf_x5F_x_x5F_4">
	<path d="M86.5,74l-3-4c-1.2-1.5-2-2.5-2.7-3.6h-0.1c-0.7,1-1.3,2-2.5,3.6l-2.8,4H72l7.1-9.1L72.3,56h3.5l3.1,4.2
		c0.9,1.2,1.5,2.1,2.1,3h0.1c0.7-1.1,1.2-1.9,2.1-3l3.2-4.2h3.5l-7.1,8.8L90,74H86.5z"/>
</g>
<g id="bxgInf_x5F_x_x5F_3">
	<path d="M113.5,74l-3-4c-1.2-1.5-2-2.5-2.7-3.6h-0.1c-0.7,1-1.3,2-2.5,3.6l-2.8,4H99l7.1-9.1L99.3,56h3.5l3.1,4.2
		c0.9,1.2,1.5,2.1,2.1,3h0.1c0.7-1.1,1.2-1.9,2.1-3l3.2-4.2h3.5l-7.1,8.8L117,74H113.5z"/>
</g>
<g id="bxgInf_x5F_x_x5F_2">
	<path d="M140.5,74l-3-4c-1.2-1.5-2-2.5-2.7-3.6h-0.1c-0.7,1-1.3,2-2.5,3.6l-2.8,4H126l7.1-9.1l-6.8-8.9h3.5l3.1,4.2
		c0.9,1.2,1.5,2.1,2.1,3h0.1c0.7-1.1,1.2-1.9,2.1-3l3.2-4.2h3.5l-7.1,8.8L144,74H140.5z"/>
</g>
<g id="bxgInf_x5F_x_x5F_1_4_">
	<path d="M167.5,74l-3-4c-1.2-1.5-2-2.5-2.7-3.6h-0.1c-0.7,1-1.3,2-2.5,3.6l-2.8,4H153l7.1-9.1l-6.8-8.9h3.5l3.1,4.2
		c0.9,1.2,1.5,2.1,2.1,3h0.1c0.7-1.1,1.2-1.9,2.1-3l3.2-4.2h3.5l-7.1,8.8L171,74H167.5z"/>
</g>
</svg>
