<svg width="1280" height="190" xmlns="http://www.w3.org/2000/svg" xmlns:svg="http://www.w3.org/2000/svg">
 <g display="inline">
  <title>Interfaces</title>
  <g id="bxGfx_interfaces">
   <rect id="bxGfx_1" x="44" y="60.235976" width="59" height="36.346227"/>
   <rect id="bxGfx_2" x="44" y="101.65377" width="59" height="36.346227"/>
   <rect id="bxGfx_3" x="107" y="60.235976" width="59" height="36.346227"/>
   <rect id="bxGfx_4" x="107" y="101.65377" width="59" height="36.346227"/>
   <rect id="bxGfx_5" x="170" y="60.235976" width="59" height="36.346227"/>
   <rect id="bxGfx_6" x="170" y="101.65377" width="59" height="36.346227"/>
   <rect id="bxGfx_7" x="233" y="60.235976" width="59" height="36.346227"/>
   <rect id="bxGfx_8" x="233" y="101.65377" width="59" height="36.346227"/>
   <rect id="bxGfx_9" x="304" y="60.235976" width="59" height="36.346227"/>
   <rect id="bxGfx_10" x="304" y="101.65377" width="59" height="36.346227"/>
   <rect id="bxGfx_11" x="367" y="60.235976" width="59" height="36.346227"/>
   <rect id="bxGfx_12" x="367" y="101.65377" width="59" height="36.346227"/>
   <rect id="bxGfx_13" x="430" y="60.235976" width="59" height="36.346227"/>
   <rect id="bxGfx_14" x="430" y="101.65377" width="59" height="36.346227"/>
   <rect id="bxGfx_15" x="493" y="60.235976" width="59" height="36.346227"/>
   <rect id="bxGfx_16" x="493" y="101.65377" width="59" height="36.346227"/>
   <rect id="bxGfx_17" x="564" y="60.235976" width="59" height="36.346227"/>
   <rect id="bxGfx_18" x="564" y="101.65377" width="59" height="36.346227"/>
   <rect id="bxGfx_19" x="627" y="60.235976" width="59" height="36.346227"/>
   <rect id="bxGfx_20" x="627" y="101.65377" width="59" height="36.346227"/>
   <rect id="bxGfx_21" x="690" y="60.235976" width="59" height="36.346227"/>
   <rect id="bxGfx_22" x="690" y="101.65377" width="59" height="36.346227"/>
   <rect id="bxGfx_23" x="753" y="60.235976" width="59" height="36.346227"/>
   <rect id="bxGfx_24" x="753" y="101.65377" width="59" height="36.346227"/>
   <rect id="bxGfx_25" x="824" y="60.235976" width="59" height="36.346227"/>
   <rect id="bxGfx_26" x="824" y="101.65377" width="59" height="36.346227"/>
   <rect id="bxGfx_27" x="887" y="60.235976" width="59" height="36.346227"/>
   <rect id="bxGfx_28" x="887" y="101.65377" width="59" height="36.346227"/>
   <rect id="bxGfx_29" x="950" y="60.235976" width="59" height="36.346227"/>
   <rect id="bxGfx_30" x="950" y="101.65377" width="59" height="36.346227"/>
   <rect id="bxGfx_31" x="1013" y="60.235976" width="59" height="36.346227"/>
   <rect id="bxGfx_32" x="1013" y="101.65377" width="59" height="36.346227"/>
   <rect x="1089.5" y="50.6" width="52.031496" height="36.346227"/>
   <rect x="1149.468504" y="50.6" width="52.031496" height="36.346227"/>
  </g>
 </g>
 <g display="inline">
  <title>InterfacesMulti</title>
  <g id="bxGfx_interfacesMulti">
   <g id="bxGfx_m_31">
    <circle id="bxGfx_m_31-1" r="5.656849" cy="70.81409" cx="1021.40001"/>
    <circle id="bxGfx_m_31-4" r="5.656849" cy="70.81409" cx="1061.40001"/>
    <circle id="bxGfx_m_31-2" r="5.656849" cy="70.81409" cx="1034.90001"/>
    <circle id="bxGfx_m_31-3" r="5.656849" cy="70.81409" cx="1048.15001"/>
   </g>
   <g id="bxGfx_m_29">
    <circle id="bxGfx_m_29-1" r="5.656849" cy="70.81409" cx="958.59999"/>
    <circle id="bxGfx_m_29-4" r="5.656849" cy="70.81409" cx="998.59999"/>
    <circle id="bxGfx_m_29-3" r="5.656849" cy="70.81409" cx="972.09999"/>
    <circle id="bxGfx_m_29-2" r="5.656849" cy="70.81409" cx="985.34999"/>
   </g>
   <g id="bxGfx_m_32">
    <circle id="bxGfx_m_32-1" r="5.656826" cy="128.44877" cx="1022.19999"/>
    <circle id="bxGfx_m_32-4" r="5.656849" cy="128.44877" cx="1062.19999"/>
    <circle id="bxGfx_m_32-2" r="5.656734" cy="128.44877" cx="1035.69999"/>
    <circle id="bxGfx_m_32-3" r="5.656849" cy="128.44877" cx="1048.94999"/>
   </g>
   <g id="bxGfx_m_30">
    <circle id="bxGfx_m_30-1" r="5.656845" cy="128.44878" cx="958.6"/>
    <circle id="bxGfx_m_30-4" r="5.656845" cy="128.44878" cx="998.6"/>
    <circle id="bxGfx_m_30-2" r="5.656845" cy="128.44878" cx="972.1"/>
    <circle id="bxGfx_m_30-3" r="5.656845" cy="128.44878" cx="985.35"/>
   </g>
   <g id="bxGfx_m_25">
    <circle id="bxGfx_m_25-1" r="5.656849" cy="70.81409" cx="833.02631"/>
    <circle id="bxGfx_m_25-4" r="5.656849" cy="70.81409" cx="873.02631"/>
    <circle id="bxGfx_m_25-2" r="5.656849" cy="70.81409" cx="846.52631"/>
    <circle id="bxGfx_m_25-3" r="5.656849" cy="70.81409" cx="859.77631"/>
   </g>
   <g id="bxGfx_m_27">
    <circle id="bxGfx_m_27-1" r="5.656849" cy="70.81409" cx="896.22625"/>
    <circle id="bxGfx_m_27-4" r="5.656849" cy="70.81409" cx="936.22625"/>
    <circle id="bxGfx_m_27-2" r="5.656849" cy="70.81409" cx="909.72625"/>
    <circle id="bxGfx_m_27-3" r="5.656849" cy="70.81409" cx="922.97625"/>
   </g>
   <g id="bxGfx_m_28">
    <circle id="bxGfx_m_28-1" r="5.656826" cy="128.44877" cx="896.22628"/>
    <circle id="bxGfx_m_28-4" r="5.656826" cy="128.44877" cx="936.22628"/>
    <circle id="bxGfx_m_28-2" r="5.656826" cy="128.44877" cx="909.72628"/>
    <circle id="bxGfx_m_28-3" r="5.656826" cy="128.44877" cx="922.97628"/>
   </g>
   <g id="bxGfx_m_23">
    <circle id="bxGfx_m_23-1" r="5.656849" cy="70.81409" cx="762.77369"/>
    <circle id="bxGfx_m_23-4" r="5.656849" cy="70.81409" cx="802.77369"/>
    <circle id="bxGfx_m_23-2" r="5.656849" cy="70.81409" cx="776.27369"/>
    <circle id="bxGfx_m_23-3" r="5.656849" cy="70.81409" cx="789.52369"/>
   </g>
   <g id="bxGfx_m_21">
    <circle id="bxGfx_m_21-1" r="5.656849" cy="70.81409" cx="698.79996"/>
    <circle id="bxGfx_m_21-4" r="5.656849" cy="70.81409" cx="738.79996"/>
    <circle id="bxGfx_m_21-2" r="5.656849" cy="70.81409" cx="712.29996"/>
    <circle id="bxGfx_m_21-3" r="5.656849" cy="70.81409" cx="725.54996"/>
   </g>
   <g id="bxGfx_m_17">
    <circle id="bxGfx_m_17-1" r="5.656849" cy="70.81409" cx="573.55618"/>
    <circle id="bxGfx_m_17-4" r="5.656849" cy="70.81409" cx="613.55618"/>
    <circle id="bxGfx_m_17-2" r="5.656849" cy="70.81409" cx="587.05618"/>
    <circle id="bxGfx_m_17-3" r="5.656849" cy="70.81409" cx="600.30618"/>
   </g>
   <g id="bxGfx_m_19">
    <circle id="bxGfx_m_19-1" r="5.656849" cy="70.81409" cx="636.8088"/>
    <circle id="bxGfx_m_19-4" r="5.656849" cy="70.81409" cx="676.8088"/>
    <circle id="bxGfx_m_19-2" r="5.656849" cy="70.81409" cx="650.3088"/>
    <circle id="bxGfx_m_19-3" r="5.656849" cy="70.81409" cx="663.5588"/>
   </g>
   <g id="bxGfx_m_26">
    <circle id="bxGfx_m_26-1" r="5.65686" cy="128.44876" cx="833.02632"/>
    <circle id="bxGfx_m_26-4" r="5.65686" cy="128.44876" cx="873.02632"/>
    <circle id="bxGfx_m_26-2" r="5.65686" cy="128.44876" cx="846.52632"/>
    <circle id="bxGfx_m_26-3" r="5.65686" cy="128.44876" cx="859.77632"/>
   </g>
   <g id="bxGfx_m_24">
    <circle id="bxGfx_m_24-1" r="5.656849" cy="128.44877" cx="762.77369"/>
    <circle id="bxGfx_m_24-4" r="5.656849" cy="128.44877" cx="802.77369"/>
    <circle id="bxGfx_m_24-2" r="5.656849" cy="128.44877" cx="776.27369"/>
    <circle id="bxGfx_m_24-3" r="5.656849" cy="128.44877" cx="789.52369"/>
   </g>
   <g id="bxGfx_m_22">
    <circle id="bxGfx_m_22-1" r="5.656826" cy="128.44877" cx="698.79999"/>
    <circle id="bxGfx_m_22-4" r="5.656826" cy="128.44877" cx="738.79999"/>
    <circle id="bxGfx_m_22-2" r="5.656826" cy="128.44877" cx="712.29999"/>
    <circle id="bxGfx_m_22-3" r="5.656826" cy="128.44877" cx="725.54999"/>
   </g>
   <g id="bxGfx_m_15">
    <circle id="bxGfx_m_15-1" r="5.656845" cy="70.81409" cx="502.75618"/>
    <circle id="bxGfx_m_15-4" r="5.656849" cy="70.81409" cx="542.75618"/>
    <circle id="bxGfx_m_15-2" r="5.656799" cy="70.81409" cx="516.25618"/>
    <circle id="bxGfx_m_15-3" r="5.656849" cy="70.81409" cx="529.50618"/>
   </g>
   <g id="bxGfx_m_13">
    <circle id="bxGfx_m_13-1" r="5.656845" cy="70.81409" cx="439.55618"/>
    <circle id="bxGfx_m_13-4" r="5.656845" cy="70.81409" cx="479.55618"/>
    <circle id="bxGfx_m_13-2" r="5.656845" cy="70.81409" cx="453.05618"/>
    <circle id="bxGfx_m_13-3" r="5.656845" cy="70.81409" cx="466.30618"/>
   </g>
   <g id="bxGfx_m_11">
    <circle id="bxGfx_m_11-1" r="5.656845" cy="70.81409" cx="375.58244"/>
    <circle id="bxGfx_m_11-4" r="5.656845" cy="70.81409" cx="415.58244"/>
    <circle id="bxGfx_m_11-2" r="5.656845" cy="70.81409" cx="389.08244"/>
    <circle id="bxGfx_m_11-3" r="5.656845" cy="70.81409" cx="402.33244"/>
   </g>
   <g id="bxGfx_m_7">
    <circle id="bxGfx_m_7-1" r="5.656849" cy="70.81409" cx="242.4"/>
    <circle id="bxGfx_m_7-4" r="5.656845" cy="70.81409" cx="282.4"/>
    <circle id="bxGfx_m_7-2" r="5.656849" cy="70.81409" cx="255.9"/>
    <circle id="bxGfx_m_7-3" r="5.656845" cy="70.81409" cx="269.15"/>
   </g>
   <g id="bxGfx_m_9">
    <circle id="bxGfx_m_9-1" r="5.656845" cy="70.81409" cx="313.26132"/>
    <circle id="bxGfx_m_9-4" r="5.656845" cy="70.81409" cx="353.26132"/>
    <circle id="bxGfx_m_9-2" r="5.656845" cy="70.81409" cx="326.76132"/>
    <circle id="bxGfx_m_9-3" r="5.656845" cy="70.81409" cx="340.01132"/>
   </g>
   <g id="bxGfx_m_20">
    <circle id="bxGfx_m_20-1" r="5.65683" cy="128.44878" cx="636.80879"/>
    <circle id="bxGfx_m_20-4" r="5.65683" cy="128.44878" cx="676.80879"/>
    <circle id="bxGfx_m_20-2" r="5.65683" cy="128.44878" cx="650.30879"/>
    <circle id="bxGfx_m_20-3" r="5.65683" cy="128.44878" cx="663.55879"/>
   </g>
   <g id="bxGfx_m_18">
    <circle id="bxGfx_m_18-1" r="5.656849" cy="128.44877" cx="573.55618"/>
    <circle id="bxGfx_m_18-4" r="5.656849" cy="128.44877" cx="613.55618"/>
    <circle id="bxGfx_m_18-2" r="5.656849" cy="128.44877" cx="587.05618"/>
    <circle id="bxGfx_m_18-3" r="5.656849" cy="128.44877" cx="600.30618"/>
   </g>
   <g id="bxGfx_m_16">
    <circle id="bxGfx_m_16-1" r="5.656845" cy="128.44877" cx="502.75616"/>
    <circle id="bxGfx_m_16-4" r="5.656826" cy="128.44877" cx="542.75616"/>
    <circle id="bxGfx_m_16-2" r="5.656796" cy="128.44877" cx="516.25616"/>
    <circle id="bxGfx_m_16-3" r="5.656826" cy="128.44877" cx="529.50616"/>
   </g>
   <g id="bxGfx_m_12">
    <circle id="bxGfx_m_12-1" r="5.656845" cy="128.44878" cx="377.18248"/>
    <circle id="bxGfx_m_12-4" r="5.656845" cy="128.44878" cx="417.18248"/>
    <circle id="bxGfx_m_12-2" r="5.656845" cy="128.44878" cx="390.68248"/>
    <circle id="bxGfx_m_12-3" r="5.656845" cy="128.44878" cx="403.93248"/>
   </g>
   <g id="bxGfx_m_14">
    <circle id="bxGfx_m_14-1" r="5.656845" cy="128.44877" cx="439.55622"/>
    <circle id="bxGfx_m_14-4" r="5.656845" cy="128.44877" cx="479.55622"/>
    <circle id="bxGfx_m_14-2" r="5.656845" cy="128.44877" cx="453.05622"/>
    <circle id="bxGfx_m_14-3" r="5.656845" cy="128.44877" cx="466.30622"/>
   </g>
   <g id="bxGfx_m_10">
    <circle id="bxGfx_m_10-1" r="5.656845" cy="128.44877" cx="313.66137"/>
    <circle id="bxGfx_m_10-4" r="5.656845" cy="128.44877" cx="353.66137"/>
    <circle id="bxGfx_m_10-2" r="5.656845" cy="128.44877" cx="327.16137"/>
    <circle id="bxGfx_m_10-3" r="5.656845" cy="128.44877" cx="340.41137"/>
   </g>
   <g id="bxGfx_m_8">
    <circle id="bxGfx_m_8-1" r="5.656845" cy="128.44877" cx="242.8"/>
    <circle id="bxGfx_m_8-4" r="5.656845" cy="128.44877" cx="282.8"/>
    <circle id="bxGfx_m_8-2" r="5.656849" cy="128.44877" cx="256.3"/>
    <circle id="bxGfx_m_8-3" r="5.656845" cy="128.44877" cx="269.55"/>
   </g>
   <g id="bxGfx_m_6">
    <circle id="bxGfx_m_6-1" r="5.656845" cy="128.44877" cx="179.99997"/>
    <circle id="bxGfx_m_6-4" r="5.656845" cy="128.44877" cx="219.99997"/>
    <circle id="bxGfx_m_6-2" r="5.656845" cy="128.44877" cx="193.49997"/>
    <circle id="bxGfx_m_6-3" r="5.656845" cy="128.44877" cx="206.74997"/>
   </g>
   <g id="bxGfx_m_2">
    <circle id="bxGfx_m_2-1" r="5.656845" cy="128.44877" cx="53.00003"/>
    <circle id="bxGfx_m_2-4" r="5.656845" cy="128.44877" cx="93.00003"/>
    <circle id="bxGfx_m_2-2" r="5.656845" cy="128.44877" cx="66.50003"/>
    <circle id="bxGfx_m_2-3" r="5.656845" cy="128.44877" cx="79.75003"/>
   </g>
   <g id="bxGfx_m_4">
    <circle id="bxGfx_m_4-1" r="5.656845" cy="128.44878" cx="115.90517"/>
    <circle id="bxGfx_m_4-4" r="5.656845" cy="128.44878" cx="155.90517"/>
    <circle id="bxGfx_m_4-2" r="5.656845" cy="128.44878" cx="129.40517"/>
    <circle id="bxGfx_m_4-3" r="5.656845" cy="128.44878" cx="142.65517"/>
   </g>
   <g id="bxGfx_m_5">
    <circle id="bxGfx_m_5-1" r="5.656849" cy="70.81409" cx="179.4"/>
    <circle id="bxGfx_m_5-4" r="5.656849" cy="70.81409" cx="219.4"/>
    <circle id="bxGfx_m_5-2" r="5.656849" cy="70.81409" cx="192.9"/>
    <circle id="bxGfx_m_5-3" r="5.656849" cy="70.81409" cx="206.15"/>
   </g>
   <g id="bxGfx_m_1">
    <circle id="bxGfx_m_1-1" r="5.656849" cy="70.81409" cx="53.00003"/>
    <circle id="bxGfx_m_1-4" r="5.656849" cy="70.81409" cx="93.00003"/>
    <circle id="bxGfx_m_1-2" r="5.656845" cy="70.81409" cx="66.50003"/>
    <circle id="bxGfx_m_1-3" r="5.656849" cy="70.81409" cx="79.75003"/>
   </g>
   <g id="bxGfx_m_3">
    <circle id="bxGfx_m_3-1" r="5.656849" cy="70.81409" cx="115.90517"/>
    <circle id="bxGfx_m_3-4" r="5.656845" cy="70.81409" cx="155.90517"/>
    <circle id="bxGfx_m_3-2" r="5.656845" cy="70.81409" cx="129.40517"/>
    <circle id="bxGfx_m_3-3" r="5.656845" cy="70.81409" cx="142.65517"/>
   </g>
  </g>
 </g>
 <g display="inline">
  <title>InterfacesSlash</title>
  <g id="bxGfx_interfacesSlash">
   <polygon id="bxGfx_s_1" points="53.400001525878906,93.41176509857178 47,93.41176509857178 47,89.8399991046681 91.5999984741211,65 98,65 98,68.57176599390368 "/>
   <polygon id="bxGfx_s_2" points="53.400001525878906,134.00000095367432 47,134.00000095367432 47,130.42824115304393 91.5999984741211,105.58823585510254 98,105.58823585510254 98,109.16000804227951 "/>
   <polygon id="bxGfx_s_3" points="116.4000015258789,93.41176509857178 110,93.41176509857178 110,89.8399991046681 154.60000610351562,65 161,65 161,68.57176599390368 "/>
   <polygon id="bxGfx_s_4" points="116.4000015258789,134.00000095367432 110,134.00000095367432 110,130.42824115304393 154.60000610351562,105.58823585510254 161,105.58823585510254 161,109.16000804227951 "/>
   <polygon id="bxGfx_s_5" points="179.39999389648438,93.41176509857178 173,93.41176509857178 173,89.8399991046681 217.60000610351562,65 224,65 224,68.57176599390368 "/>
   <polygon id="bxGfx_s_6" points="179.39999389648438,134.00000095367432 173,134.00000095367432 173,130.42824115304393 217.60000610351562,105.58823585510254 224,105.58823585510254 224,109.16000804227951 "/>
   <polygon id="bxGfx_s_7" points="242.39999389648438,93.41176509857178 236,93.41176509857178 236,89.8399991046681 280.6000061035156,65 287,65 287,68.57176599390368 "/>
   <polygon id="bxGfx_s_8" points="242.39999389648438,134.00000095367432 236,134.00000095367432 236,130.42824115304393 280.6000061035156,105.58823585510254 287,105.58823585510254 287,109.16000804227951 "/>
   <polygon id="bxGfx_s_9" points="314.3999938964844,93.41176509857178 308,93.41176509857178 308,89.8399991046681 352.6000061035156,65 359,65 359,68.57176599390368 "/>
   <polygon id="bxGfx_s_10" points="314.3999938964844,134.00000095367432 308,134.00000095367432 308,130.42824115304393 352.6000061035156,105.58823585510254 359,105.58823585510254 359,109.16000804227951 "/>
   <polygon id="bxGfx_s_11" points="377.3999938964844,93.41176509857178 371,93.41176509857178 371,89.8399991046681 415.6000061035156,65 422,65 422,68.57176599390368 "/>
   <polygon id="bxGfx_s_12" points="377.3999938964844,134.00000095367432 371,134.00000095367432 371,130.42824115304393 415.6000061035156,105.58823585510254 422,105.58823585510254 422,109.16000804227951 "/>
   <polygon id="bxGfx_s_13" points="440.3999938964844,93.41176509857178 434,93.41176509857178 434,89.8399991046681 478.6000061035156,65 485,65 485,68.57176599390368 "/>
   <polygon id="bxGfx_s_14" points="440.3999938964844,134.00000095367432 434,134.00000095367432 434,130.42824115304393 478.6000061035156,105.58823585510254 485,105.58823585510254 485,109.16000804227951 "/>
   <polygon id="bxGfx_s_15" points="503.3999938964844,93.41176509857178 497,93.41176509857178 497,89.8399991046681 541.5999755859375,65 548,65 548,68.57176599390368 "/>
   <polygon id="bxGfx_s_16" points="503.3999938964844,134.00000095367432 497,134.00000095367432 497,130.42824115304393 541.5999755859375,105.58823585510254 548,105.58823585510254 548,109.16000804227951 "/>
   <polygon id="bxGfx_s_17" points="574.4000244140625,93.41176509857178 568,93.41176509857178 568,89.8399991046681 612.5999755859375,65 619,65 619,68.57176599390368 "/>
   <polygon id="bxGfx_s_18" points="574.4000244140625,134.00000095367432 568,134.00000095367432 568,130.42824115304393 612.5999755859375,105.58823585510254 619,105.58823585510254 619,109.16000804227951 "/>
   <polygon id="bxGfx_s_19" points="637.4000244140625,93.41176509857178 631,93.41176509857178 631,89.8399991046681 675.5999755859375,65 682,65 682,68.57176599390368 "/>
   <polygon id="bxGfx_s_20" points="637.4000244140625,134.00000095367432 631,134.00000095367432 631,130.42824115304393 675.5999755859375,105.58823585510254 682,105.58823585510254 682,109.16000804227951 "/>
   <polygon id="bxGfx_s_21" points="700.4000244140625,93.41176509857178 694,93.41176509857178 694,89.8399991046681 738.5999755859375,65 745,65 745,68.57176599390368 "/>
   <polygon id="bxGfx_s_22" points="700.4000244140625,134.00000095367432 694,134.00000095367432 694,130.42824115304393 738.5999755859375,105.58823585510254 745,105.58823585510254 745,109.16000804227951 "/>
   <polygon id="bxGfx_s_23" points="763.4000244140625,93.41176509857178 757,93.41176509857178 757,89.8399991046681 801.5999755859375,65 808,65 808,68.57176599390368 "/>
   <polygon id="bxGfx_s_24" points="763.4000244140625,134.00000095367432 757,134.00000095367432 757,130.42824115304393 801.5999755859375,105.58823585510254 808,105.58823585510254 808,109.16000804227951 "/>
   <polygon id="bxGfx_s_25" points="834.4000244140625,93.41176509857178 828,93.41176509857178 828,89.8399991046681 872.5999755859375,65 879,65 879,68.57176599390368 "/>
   <polygon id="bxGfx_s_26" points="834.4000244140625,134.00000095367432 828,134.00000095367432 828,130.42824115304393 872.5999755859375,105.58823585510254 879,105.58823585510254 879,109.16000804227951 "/>
   <polygon id="bxGfx_s_27" points="897.4000244140625,93.41176509857178 891,93.41176509857178 891,89.8399991046681 935.5999755859375,65 942,65 942,68.57176599390368 "/>
   <polygon id="bxGfx_s_28" points="897.4000244140625,134.00000095367432 891,134.00000095367432 891,130.42824115304393 935.5999755859375,105.58823585510254 942,105.58823585510254 942,109.16000804227951 "/>
   <polygon id="bxGfx_s_29" points="960.4000244140625,93.41176509857178 954,93.41176509857178 954,89.8399991046681 998.5999755859375,65 1005,65 1005,68.57176599390368 "/>
   <polygon id="bxGfx_s_30" points="960.4000244140625,134.00000095367432 954,134.00000095367432 954,130.42824115304393 998.5999755859375,105.58823585510254 1005,105.58823585510254 1005,109.16000804227951 "/>
   <polygon id="bxGfx_s_31" points="1023.4000244140625,93.41176509857178 1017,93.41176509857178 1017,89.8399991046681 1061.5999755859375,65 1068,65 1068,68.57176599390368 "/>
   <polygon id="bxGfx_s_32" points="1023.4000244140625,134.00000095367432 1017,134.00000095367432 1017,130.42824115304393 1061.5999755859375,105.58823585510254 1068,105.58823585510254 1068,109.16000804227951 "/>
  </g>
 </g>
 <g display="inline">
  <title>Labels</title>
  <g id="bxGfx_labels">
   <g id="svg_230">
    <path d="m1156.8,106l0,-12.9l3.19995,0l1.90003,8.79999l1.90002,-8.79999l3.19995,0l0,12.9l-2,0l0,-10.2l-2.09998,10.2l-2.09997,0l-2.09998,-10.2l0,10.2l-1.90002,0z" id="svg_231"/>
    <path d="m1168.99995,106.60001l2.30005,0.3c0,0.3 0.09998,0.60001 0.29993,0.7c0.20007,0.10002 0.5,0.19999 0.80005,0.19999c0.40002,0 0.79992,-0.09997 1.09997,-0.19999c0.19995,-0.09999 0.30005,-0.30001 0.40003,-0.5s0.19995,-0.7 0.19995,-1.30001l0,-1.39998c-0.29993,0.5 -0.59998,0.89998 -1,1.10001s-0.79993,0.39999 -1.29993,0.39999c-0.80005,0 -1.6001,-0.39999 -2.1001,-1.19999c-0.69995,-0.90003 -1,-2.10002 -1,-3.60002c0,-1.59999 0.30005,-2.80001 0.90003,-3.59999c0.59997,-0.79999 1.40002,-1.20002 2.30005,-1.20002c0.5,0 0.90002,0.10002 1.29992,0.40003c0.40003,0.29999 0.70008,0.59997 1,1.09997l0,-1.29998l1.90003,0l0,8.39999c0,1.3 -0.09998,2.3 -0.40003,2.89999s-0.59997,1.10001 -1.09997,1.40001c-0.5,0.30001 -1.19995,0.5 -2.09998,0.5c-0.80005,0 -1.5,-0.1 -2,-0.3s-0.90002,-0.60001 -1.19995,-1c-0.30005,-0.39999 -0.40002,-1 -0.40002,-1.5l0,-0.3l0.09997,0zm1.80005,-5.5c0,1 0.19995,1.69999 0.5,2.19999c0.29993,0.5 0.69995,0.70001 1.19995,0.70001c0.5,0 0.90003,-0.20001 1.19995,-0.70001s0.5,-1.19999 0.5,-2.09997c0,-1 -0.19995,-1.70001 -0.5,-2.20001c-0.29992,-0.5 -0.69995,-0.70002 -1.19995,-0.70002c-0.5,0 -0.90002,0.20002 -1.19995,0.70002c-0.40002,0.5 -0.5,1.20001 -0.5,2.09999z" id="svg_232"/>
    <path d="m1177.99995,96.7l1.90003,0l0,1.3c0.29992,-0.5 0.69995,-0.89999 1.09997,-1.10001s0.80005,-0.39999 1.30005,-0.39999c0.5,0 0.8999,0.10001 1.29993,0.39999c0.40002,0.20002 0.70007,0.60001 0.90002,1.10001c0.30005,-0.5 0.69995,-0.89999 1.09998,-1.10001c0.40002,-0.19999 0.80005,-0.39999 1.20007,-0.39999c0.5,0 1,0.10001 1.29993,0.39999c0.40002,0.20002 0.70007,0.60001 0.90002,1.10001c0.19995,0.5 0.30005,1.2 0.30005,2.10001l0,6l-2,0l0,-5.30001c0,-0.90001 -0.1001,-1.6 -0.20007,-1.90001s-0.40003,-0.5 -0.79993,-0.5c-0.5,0 -0.80005,0.20002 -1.1001,0.60002c-0.29992,0.39998 -0.3999,1.29999 -0.3999,2.5l0,4.5l-2,0l0,-5.10002c0,-1 -0.1001,-1.69999 -0.20007,-2c-0.09998,-0.39998 -0.40003,-0.59999 -0.90003,-0.59999c-0.29992,0 -0.59997,0.09999 -0.79992,0.30001c-0.30005,0.19999 -0.40003,0.5 -0.5,0.89999c-0.09998,0.39999 -0.20008,1 -0.20008,1.89999l0,4.5l-2,0l0,-9.19999l-0.19995,0z" id="svg_233"/>
    <path d="m1194.8,96.7l0,2l-1.40002,0l0,3.8c0,0.8 0,1.3 0.09997,1.39999c0.1001,0.20002 0.20007,0.40001 0.5,0.40001c0.20007,0 0.5,-0.1 0.80005,-0.19999l0.19995,1.89998c-0.5,0.20001 -1,0.39999 -1.59997,0.39999c-0.5,0 -0.90003,-0.09999 -1.19996,-0.39999c-0.30004,-0.2 -0.5,-0.60001 -0.59997,-1.10001c-0.1001,-0.29999 -0.1001,-1 -0.1001,-2.09999l0,-4.10001l-0.8999,0l0,-2l0.8999,0l0,-1.89999l2,-1.4l0,3.30001l1.30005,0z" id="svg_234"/>
   </g>
   <g id="svg_241">
    <path d="m1095.60005,101.3l2.09997,0.80001c-0.29992,1.39998 -0.90002,2.5 -1.59997,3.19999s-1.69995,1 -2.80005,1c-1.3999,0 -2.5,-0.5 -3.29993,-1.6c-1,-1.20001 -1.5,-2.9 -1.5,-5c0,-2.20001 0.5,-3.9 1.5,-5.20001c0.90003,-1.10001 2,-1.60001 3.5,-1.60001c1.19995,0 2.19995,0.40001 3,1.20001c0.59998,0.59999 1,1.39999 1.19995,2.59999l-2.09997,0.60001c-0.09998,-0.7 -0.40003,-1.2 -0.80005,-1.60001s-0.8999,-0.59999 -1.3999,-0.59999c-0.80005,0 -1.40003,0.29999 -1.90003,1c-0.5,0.7 -0.70007,1.79999 -0.70007,3.39999c0,1.60001 0.20007,2.79999 0.70007,3.5s1.09998,1 1.90003,1c0.59997,0 1,-0.20001 1.5,-0.70001s0.59997,-1.1 0.69995,-2l0,0.00003z" id="svg_242"/>
    <path d="m1098.99995,101.2c0,-0.9 0.19995,-1.7 0.5,-2.5c0.40003,-0.80001 0.80005,-1.30001 1.40003,-1.7s1.19995,-0.60001 2,-0.60001c1.19995,0 2.19995,0.5 2.90002,1.40001s1.09998,2.09999 1.09998,3.4c0,1 -0.20008,1.79999 -0.5,2.6c-0.40003,0.80001 -0.80005,1.4 -1.40003,1.7c-0.59997,0.39999 -1.19995,0.60001 -2,0.60001c-1.09997,0 -2.09997,-0.40001 -2.80005,-1.30001c-0.79992,-0.79999 -1.19995,-2 -1.19995,-3.6zm2.09998,0.1c0,0.9 0.20007,1.70001 0.59997,2.09999c0.40003,0.5 0.80005,0.70002 1.30005,0.70002c0.5,0 0.90003,-0.20002 1.30005,-0.70002c0.3999,-0.5 0.5,-1.19999 0.5,-2.19999c0,-0.9 -0.20007,-1.59999 -0.6001,-2.09999c-0.3999,-0.5 -0.79992,-0.70002 -1.29992,-0.70002c-0.5,0 -1,0.20002 -1.30005,0.70002c-0.29993,0.59999 -0.5,1.29998 -0.5,2.19999z" id="svg_243"/>
    <path d="m1115.49995,106l-2,0l0,-4.8c0,-1 0,-1.59999 -0.09997,-1.9c-0.09998,-0.29999 -0.20008,-0.6 -0.40003,-0.69999c-0.19995,-0.20002 -0.40002,-0.30001 -0.69995,-0.30001c-0.30005,0 -0.6001,0.09999 -0.90002,0.30001s-0.5,0.5 -0.59998,0.89999c-0.1001,0.39999 -0.20007,1.10001 -0.20007,2.2l0,4.19999l-2,0l0,-9.29998l1.90002,0l0,1.39999c0.30005,-0.5 0.69995,-0.89999 1.09998,-1.2c0.40002,-0.3 0.90002,-0.40001 1.40002,-0.40001c0.59998,0 1.09998,0.20002 1.5,0.5c0.40003,0.30001 0.69995,0.70002 0.80005,1.20002c0.19995,0.5 0.19995,1.19999 0.19995,2.09999l0,5.79998l0,0.00002z" id="svg_244"/>
    <path d="m1116.8,103.3l2,-0.40001c0.19995,1 0.69995,1.5 1.59998,1.5c0.5,0 0.80004,-0.09999 1.09997,-0.29998s0.40003,-0.40001 0.40003,-0.70002c0,-0.19999 -0.09998,-0.39999 -0.19996,-0.5c-0.09997,-0.09999 -0.30004,-0.19999 -0.70007,-0.29998c-1.69995,-0.40001 -2.69995,-0.90001 -3.19995,-1.30001c-0.59998,-0.5 -0.80005,-1.19999 -0.80005,-2.1s0.30005,-1.59999 0.80005,-2.09999s1.40002,-0.80001 2.40002,-0.80001c1,0 1.79993,0.2 2.29993,0.59999s0.90003,1 1.1001,1.90001l-1.90002,0.4c-0.20008,-0.80001 -0.70008,-1.09999 -1.40003,-1.09999c-0.5,0 -0.90002,0.09999 -1.09997,0.19999s-0.30005,0.30001 -0.30005,0.59999c0,0.20002 0.09997,0.40001 0.30005,0.5c0.19995,0.10001 0.79992,0.40001 1.79992,0.60001c1.1001,0.3 1.90003,0.7 2.30005,1.2c0.40003,0.5 0.59998,1.1 0.59998,1.8c0,0.89999 -0.29993,1.60001 -0.90003,2.2c-0.59997,0.6 -1.5,0.90001 -2.59997,0.90001c-1,0 -1.79993,-0.20002 -2.40003,-0.70002s-1,-1.09999 -1.19995,-2.09999z" id="svg_245"/>
    <path d="m1125.3,101.2c0,-0.9 0.19995,-1.7 0.5,-2.5c0.40002,-0.80001 0.80005,-1.30001 1.40002,-1.7s1.19996,-0.60001 2,-0.60001c1.19996,0 2.19996,0.5 2.90003,1.40001s1.09997,2.09999 1.09997,3.4c0,1 -0.20007,1.79999 -0.5,2.6c-0.40002,0.80001 -0.80004,1.4 -1.40002,1.7c-0.59998,0.39999 -1.19995,0.60001 -2,0.60001c-1.09998,0 -2.09998,-0.40001 -2.80005,-1.30001c-0.79993,-0.79999 -1.19995,-2 -1.19995,-3.6zm2.09998,0.1c0,0.9 0.20007,1.70001 0.59997,2.09999c0.40003,0.5 0.80005,0.70002 1.30005,0.70002c0.5,0 0.90002,-0.20002 1.30005,-0.70002c0.3999,-0.5 0.5,-1.19999 0.5,-2.19999c0,-0.9 -0.20007,-1.59999 -0.6001,-2.09999c-0.3999,-0.5 -0.79993,-0.70002 -1.29993,-0.70002c-0.5,0 -1,0.20002 -1.30004,0.70002c-0.40003,0.59999 -0.5,1.29998 -0.5,2.19999z" id="svg_246"/>
    <path d="m1134.8,106l0,-12.89999l2,0l0,12.89999l-2,0z" id="svg_247"/>
    <path d="m1143.3,103l2,0.39999c-0.30005,0.90001 -0.69995,1.60001 -1.30005,2.10001c-0.59997,0.5 -1.29993,0.7 -2.09997,0.7c-1.09998,0 -2,-0.4 -2.59998,-1.09999c-0.69995,-0.90001 -1.09998,-2.10001 -1.09998,-3.70002c0,-1.59999 0.40003,-2.79998 1.09998,-3.79998c0.59998,-0.80001 1.40002,-1.20002 2.40002,-1.20002c1.09998,0 2,0.40001 2.59998,1.20002c0.69995,0.89999 1.09998,2.29998 1.09998,4.09999l0,0.3l-5.09998,0c0,0.7 0.19995,1.3 0.5,1.7c0.30005,0.40001 0.69995,0.6 1.19995,0.6c0.70007,0.09999 1.1001,-0.40001 1.30005,-1.29999l0,-0.00001zm0.09998,-2.5c0,-0.7 -0.19996,-1.3 -0.5,-1.60001c-0.29993,-0.39999 -0.59998,-0.59999 -1,-0.59999c-0.40003,0 -0.79993,0.2 -1.09998,0.59999c-0.30005,0.40001 -0.40002,0.90001 -0.40002,1.60001l3,0z" id="svg_248"/>
   </g>
   <g id="svg_82">
    <path d="m77.99997,156.3l0,2.7l-8.3,0c0.1,-1 0.4,-2 0.8,-2.89999c0.5,-0.90001 1.3,-2.10001 2.7,-3.60001c1,-1.2 1.7,-2 1.9,-2.39999c0.39999,-0.60001 0.5,-1.20002 0.5,-1.80001c0,-0.69999 -0.10001,-1.19999 -0.4,-1.5s-0.7,-0.5 -1.2,-0.5c-1,0 -1.6,0.80001 -1.7,2.30001l-2.3,-0.30001c0.10001,-1.5 0.60001,-2.69999 1.3,-3.39999c0.7,-0.7 1.6,-1.1 2.8,-1.1c1.3,0 2.3,0.39999 2.89999,1.3s1,1.8 1,2.90001c0,0.6 -0.1,1.19999 -0.3,1.79998c-0.2,0.59999 -0.4,1.20002 -0.8,1.70002s-0.9,1.29998 -1.7,2.19999c-0.8,0.90001 -1.2,1.40001 -1.4,1.7c-0.2,0.3 -0.4,0.5 -0.5,0.8l4.7,0l0,0.10001l0.00001,-0.00002z" id="svg_83"/>
   </g>
   <g id="svg_93">
    <path d="m136.09996,159l0,-3l-5,0l0,-2.5l5.30001,-9.5l2,0l0,9.5l1.5,0l0,2.5l-1.5,0l0,3l-2.30001,0zm0,-5.60001l0,-5.09999l-2.8,5.09999l2.8,0z" id="svg_94"/>
   </g>
   <g id="svg_97">
    <path d="m202.49996,147.60001l-2.30001,0.3c-0.09999,-1.10001 -0.59999,-1.7 -1.29998,-1.7c-0.5,0 -0.90001,0.30001 -1.30001,0.80001c-0.29999,0.59999 -0.6,1.69999 -0.6,3.39997c0.3,-0.39997 0.6,-0.69999 1,-1c0.40001,-0.19999 0.8,-0.29998 1.19999,-0.29998c1,0 1.80001,0.40001 2.5,1.29998s1.10002,2.10003 1.10002,3.60003c0,1.59999 -0.39999,2.79998 -1.10002,3.69999s-1.69999,1.4 -2.79998,1.4c-1.20002,0 -2.30001,-0.59999 -3.10001,-1.80001s-1.2,-3.09999 -1.2,-5.79999c0,-2.8 0.4,-4.70001 1.30001,-5.9s1.89997,-1.8 3.19999,-1.8c0.9,0 1.7,0.3 2.30001,0.9c0.59999,0.8 1,1.7 1.09999,2.9zm-5.30001,6.3c0,0.89999 0.20002,1.7 0.5,2.2c0.40001,0.5 0.80001,0.8 1.20002,0.8c0.39999,0 0.79998,-0.2 1.09999,-0.60001c0.3,-0.39999 0.40001,-1.09999 0.40001,-2c0,-1 -0.20002,-1.69999 -0.5,-2.09999s-0.70002,-0.69999 -1.20002,-0.69999c-0.5,0 -0.79998,0.19999 -1.19999,0.59999c-0.2,0.29998 -0.30001,1 -0.30001,1.79998l0,0.00002z" id="svg_98"/>
   </g>
   <g id="svg_101">
    <path d="m259.09997,150.89999c-0.60001,-0.3 -1,-0.69999 -1.29999,-1.19999s-0.40001,-1.10002 -0.40001,-1.90003c0,-1.19999 0.3,-2.09999 1,-2.79999s1.6,-1 2.70001,-1c1.20001,0 2.1,0.39999 2.70001,1.1c0.59998,0.7 0.89999,1.69999 0.89999,2.69999c0,0.70001 -0.20001,1.40003 -0.5,1.90003s-0.70001,0.89998 -1.20001,1.19999c0.70001,0.30001 1.20001,0.80001 1.60001,1.39998c0.29999,0.60002 0.5,1.40003 0.5,2.30001c0,0.89999 -0.20001,1.69999 -0.5,2.5c-0.29999,0.69999 -0.79999,1.3 -1.4,1.60002c-0.6,0.39998 -1.30001,0.59997 -2.1,0.59997c-1.20001,0 -2.20001,-0.39998 -2.9,-1.19999s-1.20001,-1.89998 -1.20001,-3.30001c0,-0.89998 0.20001,-1.69999 0.5,-2.29999c0.4,-0.79998 0.9,-1.29998 1.60001,-1.59999l-0.00001,0zm0.20001,3.5c0,0.80001 0.19998,1.39998 0.5,1.89998s0.79999,0.70001 1.19998,0.70001c0.5,0 0.9,-0.20001 1.20001,-0.59999c0.29999,-0.40001 0.5,-1 0.5,-1.90001c0,-0.70001 -0.20001,-1.29998 -0.5,-1.70001s-0.70001,-0.59997 -1.20001,-0.59997c-0.5,0 -0.89999,0.19999 -1.19998,0.59997c-0.30002,0.40003 -0.5,0.90003 -0.5,1.60002zm0.29999,-6.40001c0,0.60001 0.1,1 0.39999,1.29999c0.30002,0.30001 0.60001,0.5 1.10001,0.5c0.39999,0 0.79999,-0.19999 1.1,-0.5c0.29999,-0.29999 0.4,-0.79999 0.4,-1.29999c0,-0.59999 -0.10001,-1 -0.4,-1.29998c-0.3,-0.30001 -0.6,-0.5 -1,-0.5c-0.39999,0 -0.8,0.19999 -1.1,0.5c-0.4,0.29998 -0.5,0.69999 -0.5,1.29998z" id="svg_102"/>
   </g>
   <g id="svg_105">
    <path d="m330,159l-2.4,0l0,-10.89999c-0.89999,1 -1.89999,1.69999 -3.1,2.19999l0,-2.6c0.70001,-0.30001 1.29999,-0.7 2,-1.4c0.70001,-0.69999 1.20001,-1.49999 1.5,-2.39999l1.89999,0l0,15.1l0.10001,0l0,-0.00001z" id="svg_106"/>
    <path d="m337.5,143.9c1.20001,0 2.20001,0.6 2.89999,1.7c0.70001,1.1 1.10001,3.1 1.10001,6.00001c0,2.79999 -0.4,4.79999 -1.10001,6c-0.69998,1.09999 -1.69998,1.69999 -2.89999,1.69999c-1.20001,0 -2.20001,-0.6 -2.9,-1.69999s-1.1,-3.10001 -1.1,-6c0,-2.80001 0.39999,-4.80001 1.1,-5.90001c0.79999,-1.2 1.69999,-1.8 2.9,-1.8zm0,2.4c-0.5,0 -0.79999,0.30001 -1.10001,0.9c-0.29999,0.6 -0.39999,2.1 -0.39999,4.40001c0,2.29999 0.1,3.69999 0.39999,4.39998s0.60001,0.89999 1.10001,0.89999c0.5,0 0.79999,-0.29999 1.1,-0.89999s0.4,-2.10001 0.4,-4.39998c0,-2.30001 -0.10001,-3.70001 -0.4,-4.40001c-0.20001,-0.59999 -0.6,-0.9 -1.1,-0.9z" id="svg_107"/>
   </g>
   <g id="svg_110">
    <path d="m392.99998,159l-2.4,0l0,-10.89999c-0.89999,1 -1.89999,1.69999 -3.1,2.19999l0,-2.6c0.70001,-0.30001 1.29999,-0.7 2,-1.4c0.70001,-0.69999 1.20001,-1.49999 1.5,-2.39999l1.89999,0l0,15.1l0.10001,0l0,-0.00001z" id="svg_111"/>
    <path d="m404.49998,156.3l0,2.7l-8.29999,0c0.09998,-1 0.39999,-2 0.79999,-2.89999c0.5,-0.90001 1.29999,-2.10001 2.70001,-3.60001c1,-1.2 1.69998,-2 1.89999,-2.39999c0.4,-0.60001 0.5,-1.20002 0.5,-1.80001c0,-0.69999 -0.1,-1.19999 -0.39999,-1.5s-0.70001,-0.5 -1.20001,-0.5c-1,0 -1.60001,0.80001 -1.70001,2.30001l-2.29999,-0.30001c0.1,-1.5 0.6,-2.69999 1.29999,-3.39999c0.70001,-0.7 1.6,-1.1 2.80001,-1.1c1.29999,0 2.29999,0.39999 2.9,1.3s1,1.8 1,2.90001c0,0.6 -0.10001,1.19999 -0.29999,1.79998c-0.20001,0.59999 -0.40002,1.20002 -0.80002,1.70002s-0.89999,1.29998 -1.69998,2.19999c-0.80002,0.90001 -1.20001,1.40001 -1.40002,1.7c-0.19999,0.3 -0.4,0.5 -0.5,0.8l4.70001,0l0,0.10001l0,-0.00002z" id="svg_112"/>
   </g>
   <g id="svg_116">
    <path d="m455.49998,159l-2.4,0l0,-10.89999c-0.89999,1 -1.89999,1.69999 -3.1,2.19999l0,-2.6c0.70001,-0.30001 1.29999,-0.7 2,-1.4c0.70001,-0.69999 1.20001,-1.49999 1.5,-2.39999l1.89999,0l0,15.1l0.10001,0l0,-0.00001z" id="svg_117"/>
    <path d="m463.59998,159l0,-3l-5,0l0,-2.5l5.29999,-9.5l2,0l0,9.5l1.5,0l0,2.5l-1.5,0l0,3l-2.29999,0zm0,-5.60001l0,-5.09999l-2.80001,5.09999l2.80001,0z" id="svg_118"/>
   </g>
   <g id="svg_122">
    <path d="m518.99998,159l-2.40003,0l0,-10.89999c-0.89996,1 -1.89996,1.69999 -3.09997,2.19999l0,-2.6c0.70001,-0.30001 1.29999,-0.7 2,-1.4c0.70001,-0.69999 1.20001,-1.49999 1.5,-2.39999l1.90002,0l0,15.1l0.09998,0l0,-0.00001z" id="svg_123"/>
    <path d="m530.49998,147.60001l-2.29999,0.40001c-0.10004,-1.10001 -0.60004,-1.70002 -1.29999,-1.70002c-0.5,0 -0.90002,0.30001 -1.30005,0.80001c-0.29998,0.60002 -0.59997,1.69999 -0.59997,3.40001c0.29999,-0.40001 0.59997,-0.70002 1,-1c0.40002,-0.20002 0.79999,-0.29999 1.20001,-0.29999c1,0 1.79999,0.39998 2.5,1.29999s1.09998,2.09999 1.09998,3.59999c0,1.60002 -0.39997,2.8 -1.09998,3.69999s-1.70001,1.40003 -2.79999,1.40003c-1.20001,0 -2.30005,-0.60002 -3.10004,-1.80001s-1.20001,-3.10002 -1.20001,-5.8c0,-2.8 0.40003,-4.7 1.30005,-5.89999s1.89996,-1.8 3.19995,-1.8c0.90003,0 1.70001,0.3 2.30005,0.9c0.5,0.7 0.89996,1.6 1.09998,2.80001l0,-0.00003zm-5.29999,6.3c0,0.89999 0.20001,1.7 0.5,2.2c0.39996,0.5 0.79999,0.8 1.20001,0.8c0.39996,0 0.79999,-0.2 1.09998,-0.60001c0.29999,-0.39999 0.40002,-1.09999 0.40002,-2c0,-1 -0.20001,-1.69999 -0.5,-2.09999s-0.70001,-0.69999 -1.20001,-0.69999c-0.5,0 -0.79999,0.19999 -1.20001,0.59999c-0.20001,0.29998 -0.29999,1 -0.29999,1.79998l0,0.00002z" id="svg_124"/>
   </g>
   <g id="svg_128">
    <path d="m591.29998,159l-2.40003,0l0,-10.89999c-0.89996,1 -1.89996,1.69999 -3.09997,2.19999l0,-2.6c0.70001,-0.30001 1.29999,-0.7 2,-1.4c0.70001,-0.69999 1.20001,-1.49999 1.5,-2.39999l1.90002,0l0,15.1l0.09998,0l0,-0.00001z" id="svg_129"/>
    <path d="m596.79998,150.89999c-0.59998,-0.3 -1,-0.69999 -1.29999,-1.19999s-0.40002,-1.10002 -0.40002,-1.90003c0,-1.19999 0.29998,-2.09999 1,-2.79999s1.60003,-1 2.70001,-1c1.20001,0 2.09997,0.39999 2.70001,1.1c0.59998,0.7 0.89996,1.69999 0.89996,2.69999c0,0.70001 -0.19995,1.40003 -0.5,1.90003s-0.69995,0.89998 -1.19995,1.19999c0.69995,0.30001 1.19995,0.80001 1.59998,1.39998c0.29999,0.60002 0.5,1.40003 0.5,2.30001c0,0.89999 -0.20001,1.69999 -0.5,2.5c-0.29999,0.69999 -0.79999,1.3 -1.40003,1.60002c-0.59997,0.39998 -1.29998,0.59997 -2.09997,0.59997c-1.20001,0 -2.20001,-0.39998 -2.90003,-1.19999s-1.19995,-1.89998 -1.19995,-3.30001c0,-0.89998 0.19995,-1.69999 0.5,-2.29999c0.5,-0.79998 1,-1.29998 1.59998,-1.59999zm0.29999,3.5c0,0.80001 0.20001,1.39998 0.5,1.89998s0.79998,0.70001 1.20001,0.70001c0.5,0 0.90002,-0.20001 1.20001,-0.59999c0.29999,-0.40001 0.5,-1 0.5,-1.90001c0,-0.70001 -0.20001,-1.29998 -0.5,-1.70001s-0.70001,-0.59997 -1.20001,-0.59997c-0.5,0 -0.90003,0.19999 -1.20001,0.59997c-0.29999,0.40003 -0.5,0.90003 -0.5,1.60002zm0.20001,-6.40001c0,0.60001 0.09997,1 0.40002,1.29999c0.29999,0.30001 0.59998,0.5 1.09998,0.5c0.40002,0 0.79999,-0.19999 1.09997,-0.5c0.30005,-0.29999 0.40003,-0.79999 0.40003,-1.29999c0,-0.59999 -0.09998,-1 -0.40003,-1.29998c-0.29998,-0.30001 -0.59997,-0.5 -1,-0.5c-0.39996,0 -0.79998,0.19999 -1.09997,0.5c-0.29999,0.29998 -0.5,0.69999 -0.5,1.29998z" id="svg_130"/>
   </g>
   <g id="svg_134">
    <path d="m655.34999,156.3l0,2.7l-8.29999,0c0.09998,-1 0.39997,-2 0.79999,-2.89999c0.5,-0.90001 1.29999,-2.10001 2.70001,-3.60001c1,-1.2 1.70002,-2 1.89997,-2.39999c0.40002,-0.60001 0.5,-1.20002 0.5,-1.80001c0,-0.69999 -0.09998,-1.19999 -0.39997,-1.5s-0.70001,-0.5 -1.20001,-0.5c-1,0 -1.59997,0.80001 -1.70001,2.30001l-2.29999,-0.30001c0.09998,-1.5 0.59998,-2.69999 1.29999,-3.39999c0.70001,-0.7 1.60004,-1.1 2.79999,-1.1c1.30005,0 2.30005,0.39999 2.90002,1.3s1,1.8 1,2.90001c0,0.6 -0.09997,1.19999 -0.29999,1.79998c-0.20001,0.59999 -0.40002,1.20002 -0.79998,1.70002s-0.90003,1.29998 -1.70002,2.19999c-0.79998,0.90001 -1.20001,1.40001 -1.40002,1.7c-0.20001,0.3 -0.39996,0.5 -0.5,0.8l4.70001,0l0,0.10001l0,-0.00002z" id="svg_135"/>
    <path d="m660.94997,143.9c1.20001,0 2.20001,0.6 2.90002,1.7c0.69995,1.1 1.09998,3.1 1.09998,6.00001c0,2.79999 -0.40003,4.79999 -1.09998,6c-0.70001,1.09999 -1.70001,1.69999 -2.90002,1.69999c-1.20001,0 -2.20001,-0.6 -2.90003,-1.69999s-1.09997,-3.10001 -1.09997,-6c0,-2.80001 0.40002,-4.80001 1.09997,-5.90001c0.80005,-1.2 1.70002,-1.8 2.90003,-1.8zm0,2.4c-0.5,0 -0.79999,0.30001 -1.09998,0.9c-0.30005,0.6 -0.40002,2.1 -0.40002,4.40001c0,2.29999 0.09997,3.69999 0.40002,4.39998s0.59998,0.89999 1.09998,0.89999c0.5,0 0.79999,-0.29999 1.09997,-0.89999s0.40003,-2.10001 0.40003,-4.39998c0,-2.30001 -0.09998,-3.70001 -0.40003,-4.40001c-0.19995,-0.59999 -0.59997,-0.9 -1.09997,-0.9z" id="svg_136"/>
   </g>
   <g id="svg_140">
    <path d="m717.14999,156.3l0,2.7l-8.29999,0c0.09998,-1 0.39997,-2 0.79999,-2.89999c0.5,-0.90001 1.29999,-2.10001 2.70001,-3.60001c1,-1.2 1.70002,-2 1.89997,-2.39999c0.40002,-0.60001 0.5,-1.20002 0.5,-1.80001c0,-0.69999 -0.09998,-1.19999 -0.39997,-1.5s-0.70001,-0.5 -1.20001,-0.5c-1,0 -1.59997,0.80001 -1.70001,2.30001l-2.29999,-0.30001c0.09998,-1.5 0.59998,-2.69999 1.29999,-3.39999c0.70001,-0.7 1.60004,-1.1 2.79999,-1.1c1.30005,0 2.30005,0.39999 2.90002,1.3s1,1.8 1,2.90001c0,0.6 -0.09997,1.19999 -0.29999,1.79998c-0.20001,0.59999 -0.40002,1.20002 -0.79998,1.70002s-0.90003,1.29998 -1.70002,2.19999c-0.79998,0.90001 -1.20001,1.40001 -1.40002,1.7c-0.20001,0.3 -0.39996,0.5 -0.5,0.8l4.70001,0l0,0.10001l0,-0.00002z" id="svg_141"/>
    <path d="m726.74997,156.3l0,2.7l-8.29999,0c0.09998,-1 0.39996,-2 0.79999,-2.89999c0.5,-0.90001 1.29999,-2.10001 2.70001,-3.60001c1,-1.2 1.70001,-2 1.89996,-2.39999c0.40003,-0.60001 0.5,-1.20002 0.5,-1.80001c0,-0.69999 -0.09997,-1.19999 -0.39996,-1.5s-0.70001,-0.5 -1.20001,-0.5c-1,0 -1.59998,0.80001 -1.70001,2.30001l-2.29999,-0.30001c0.09997,-1.5 0.59997,-2.69999 1.29999,-3.39999c0.70001,-0.7 1.60003,-1.1 2.79998,-1.1c1.30005,0 2.30005,0.39999 2.90003,1.3s1,1.8 1,2.90001c0,0.6 -0.09998,1.19999 -0.29999,1.79998c-0.20001,0.59999 -0.40002,1.20002 -0.79999,1.70002s-0.90002,1.29998 -1.70001,2.19999c-0.79999,0.90001 -1.20001,1.40001 -1.40002,1.7c-0.20002,0.3 -0.39997,0.5 -0.5,0.8l4.70001,0l0,0.10001l0,-0.00002z" id="svg_142"/>
   </g>
   <g id="svg_146">
    <path d="m781.04999,156.3l0,2.7l-8.29999,0c0.09998,-1 0.39997,-2 0.79999,-2.89999c0.5,-0.90001 1.29999,-2.10001 2.70001,-3.60001c1,-1.2 1.70002,-2 1.89997,-2.39999c0.40002,-0.60001 0.5,-1.20002 0.5,-1.80001c0,-0.69999 -0.09998,-1.19999 -0.39997,-1.5s-0.70001,-0.5 -1.20001,-0.5c-1,0 -1.59997,0.80001 -1.70001,2.30001l-2.29999,-0.30001c0.09998,-1.5 0.59998,-2.69999 1.29999,-3.39999c0.70001,-0.7 1.60004,-1.1 2.79999,-1.1c1.30005,0 2.30005,0.39999 2.90002,1.3s1,1.8 1,2.90001c0,0.6 -0.09997,1.19999 -0.29999,1.79998c-0.20001,0.59999 -0.40002,1.20002 -0.79998,1.70002s-0.90003,1.29998 -1.70002,2.19999c-0.79998,0.90001 -1.20001,1.40001 -1.40002,1.7c-0.20001,0.3 -0.39996,0.5 -0.5,0.8l4.70001,0l0,0.10001l0,-0.00002z" id="svg_147"/>
    <path d="m787.25,159l0,-3l-5,0l0,-2.5l5.29999,-9.5l2,0l0,9.5l1.5,0l0,2.5l-1.5,0l0,3l-2.29999,0zm0,-5.60001l0,-5.09999l-2.79998,5.09999l2.79998,0z" id="svg_148"/>
   </g>
   <g id="svg_152">
    <path d="m852.04999,156.3l0,2.7l-8.29999,0c0.09998,-1 0.39997,-2 0.79999,-2.89999c0.5,-0.90001 1.29999,-2.10001 2.70001,-3.60001c1,-1.2 1.70002,-2 1.89997,-2.39999c0.40002,-0.60001 0.5,-1.20002 0.5,-1.80001c0,-0.69999 -0.09998,-1.19999 -0.39997,-1.5s-0.70001,-0.5 -1.20001,-0.5c-1,0 -1.59997,0.80001 -1.70001,2.30001l-2.29999,-0.30001c0.09998,-1.5 0.59998,-2.69999 1.29999,-3.39999c0.70001,-0.7 1.60004,-1.1 2.79999,-1.1c1.30005,0 2.30005,0.39999 2.90002,1.3s1,1.8 1,2.90001c0,0.6 -0.09997,1.19999 -0.29999,1.79998c-0.20001,0.59999 -0.40002,1.20002 -0.79998,1.70002s-0.90003,1.29998 -1.70002,2.19999c-0.79998,0.90001 -1.20001,1.40001 -1.40002,1.7c-0.20001,0.3 -0.39996,0.5 -0.5,0.8l4.70001,0l0,0.10001l0,-0.00002z" id="svg_153"/>
    <path d="m861.64997,147.60001l-2.29999,0.40001c-0.10004,-1.10001 -0.60004,-1.70002 -1.29999,-1.70002c-0.5,0 -0.90002,0.30001 -1.30005,0.80001c-0.29998,0.60002 -0.59997,1.69999 -0.59997,3.40001c0.29999,-0.40001 0.59997,-0.70002 1,-1c0.40002,-0.20002 0.79999,-0.29999 1.20001,-0.29999c1,0 1.79999,0.39998 2.5,1.29999s1.09998,2.09999 1.09998,3.59999c0,1.60002 -0.39997,2.8 -1.09998,3.69999s-1.70001,1.40003 -2.79999,1.40003c-1.20001,0 -2.30005,-0.60002 -3.10004,-1.80001s-1.20001,-3.10002 -1.20001,-5.8c0,-2.8 0.40003,-4.7 1.30005,-5.89999s1.89996,-1.8 3.19995,-1.8c0.90003,0 1.70001,0.3 2.30005,0.9c0.5,0.7 0.89996,1.6 1.09998,2.80001l0,-0.00003zm-5.29999,6.3c0,0.89999 0.20001,1.7 0.5,2.2c0.39996,0.5 0.79999,0.8 1.20001,0.8c0.39996,0 0.79999,-0.2 1.09998,-0.60001c0.29999,-0.39999 0.40002,-1.09999 0.40002,-2c0,-1 -0.20001,-1.69999 -0.5,-2.09999s-0.70001,-0.69999 -1.20001,-0.69999c-0.5,0 -0.79999,0.19999 -1.20001,0.59999c-0.20001,0.29998 -0.29999,1 -0.29999,1.79998l0,0.00002z" id="svg_154"/>
   </g>
   <g id="svg_158">
    <path d="m915.04999,156.3l0,2.7l-8.29999,0c0.09998,-1 0.39997,-2 0.79999,-2.89999c0.5,-0.90001 1.29999,-2.10001 2.70001,-3.60001c1,-1.2 1.70002,-2 1.89997,-2.39999c0.40002,-0.60001 0.5,-1.20002 0.5,-1.80001c0,-0.69999 -0.09998,-1.19999 -0.39997,-1.5s-0.70001,-0.5 -1.20001,-0.5c-1,0 -1.59997,0.80001 -1.70001,2.30001l-2.29999,-0.30001c0.09998,-1.5 0.59998,-2.69999 1.29999,-3.39999c0.70001,-0.7 1.60004,-1.1 2.79999,-1.1c1.30005,0 2.30005,0.39999 2.90002,1.3s1,1.8 1,2.90001c0,0.6 -0.09997,1.19999 -0.29999,1.79998c-0.20001,0.59999 -0.40002,1.20002 -0.79998,1.70002s-0.90003,1.29998 -1.70002,2.19999c-0.79998,0.90001 -1.20001,1.40001 -1.40002,1.7c-0.20001,0.3 -0.39996,0.5 -0.5,0.8l4.70001,0l0,0.10001l0,-0.00002z" id="svg_159"/>
    <path d="m918.64997,150.89999c-0.59998,-0.3 -1,-0.69999 -1.29999,-1.19999s-0.40002,-1.10002 -0.40002,-1.90003c0,-1.19999 0.29998,-2.09999 1,-2.79999s1.60003,-1 2.70001,-1c1.20001,0 2.09997,0.39999 2.70001,1.1c0.59998,0.7 0.89996,1.69999 0.89996,2.69999c0,0.70001 -0.19995,1.40003 -0.5,1.90003s-0.69995,0.89998 -1.19995,1.19999c0.69995,0.30001 1.19995,0.80001 1.59998,1.39998c0.29999,0.60002 0.5,1.40003 0.5,2.30001c0,0.89999 -0.20001,1.69999 -0.5,2.5c-0.29999,0.69999 -0.79999,1.3 -1.40003,1.60002c-0.59997,0.39998 -1.29998,0.59997 -2.09997,0.59997c-1.20001,0 -2.20001,-0.39998 -2.90003,-1.19999s-1.19995,-1.89998 -1.19995,-3.30001c0,-0.89998 0.19995,-1.69999 0.5,-2.29999c0.5,-0.79998 1,-1.29998 1.59998,-1.59999zm0.29999,3.5c0,0.80001 0.20001,1.39998 0.5,1.89998s0.79998,0.70001 1.20001,0.70001c0.5,0 0.90002,-0.20001 1.20001,-0.59999c0.29999,-0.40001 0.5,-1 0.5,-1.90001c0,-0.70001 -0.20001,-1.29998 -0.5,-1.70001s-0.70001,-0.59997 -1.20001,-0.59997c-0.5,0 -0.90003,0.19999 -1.20001,0.59997c-0.29999,0.40003 -0.5,0.90003 -0.5,1.60002zm0.20001,-6.40001c0,0.60001 0.09997,1 0.40002,1.29999c0.29999,0.30001 0.59998,0.5 1.09998,0.5c0.40002,0 0.79999,-0.19999 1.09997,-0.5c0.30005,-0.29999 0.40003,-0.79999 0.40003,-1.29999c0,-0.59999 -0.09998,-1 -0.40003,-1.29998c-0.29998,-0.30001 -0.59997,-0.5 -1,-0.5c-0.39996,0 -0.79998,0.19999 -1.09997,0.5c-0.29999,0.29998 -0.5,0.69999 -0.5,1.29998z" id="svg_160"/>
   </g>
   <g id="svg_164">
    <path d="m969.74999,155l2.29998,-0.3c0.10004,0.69999 0.29999,1.19999 0.60004,1.6c0.29999,0.4 0.69995,0.59999 1.19995,0.59999c0.5,0 0.90003,-0.19999 1.20001,-0.69999s0.5,-1.09999 0.5,-1.80001c0,-0.69999 -0.20001,-1.29998 -0.5,-1.69999c-0.29998,-0.4 -0.70001,-0.59999 -1.20001,-0.59999c-0.29999,0 -0.69995,0.09999 -1.09997,0.19999l0.29998,-2.29999c0.60004,0 1.10004,-0.10002 1.5,-0.5c0.40003,-0.3 0.5,-0.8 0.5,-1.39999c0,-0.5 -0.09997,-0.90001 -0.39996,-1.20001s-0.60004,-0.39999 -1,-0.39999s-0.70001,0.20001 -1,0.5c-0.30005,0.3 -0.5,0.8 -0.5,1.5l-2.20001,-0.5c0.20001,-1.39998 0.70001,-2.4 1.29999,-3s1.5,-0.9 2.5,-0.9c1.09997,0 2,0.4 2.70001,1.2c0.70001,0.8 1,1.7 1,2.7c0,0.70001 -0.10004,1.20001 -0.40002,1.8c-0.29999,0.5 -0.70002,1 -1.29999,1.39999c0.70001,0.2 1.29999,0.60001 1.70001,1.2c0.39996,0.60001 0.70001,1.40001 0.70001,2.40001c0,1.39999 -0.40002,2.5 -1.20001,3.39999c-0.79999,0.90001 -1.79999,1.30001 -2.90002,1.30001c-1.09998,0 -2,-0.4 -2.70002,-1.10003s-1.39996,-2.09999 -1.59997,-3.39997l0,-0.00002z" id="svg_165"/>
    <path d="m983.45,143.9c1.20001,0 2.20001,0.6 2.90002,1.7c0.69995,1.1 1.09998,3.1 1.09998,6.00001c0,2.79999 -0.40003,4.79999 -1.09998,6c-0.70001,1.09999 -1.70001,1.69999 -2.90002,1.69999c-1.20001,0 -2.20001,-0.6 -2.90003,-1.69999s-1.09997,-3.10001 -1.09997,-6c0,-2.80001 0.40002,-4.80001 1.09997,-5.90001c0.80005,-1.2 1.70002,-1.8 2.90003,-1.8zm0,2.4c-0.5,0 -0.79999,0.30001 -1.09998,0.9c-0.30005,0.6 -0.40002,2.1 -0.40002,4.40001c0,2.29999 0.09997,3.69999 0.40002,4.39998s0.59998,0.89999 1.09998,0.89999c0.5,0 0.79999,-0.29999 1.09997,-0.89999s0.40003,-2.10001 0.40003,-4.39998c0,-2.30001 -0.09998,-3.70001 -0.40003,-4.40001c-0.19995,-0.59999 -0.59997,-0.9 -1.09997,-0.9z" id="svg_166"/>
   </g>
   <g id="svg_170">
    <path d="m1031.74999,155l2.30004,-0.3c0.09998,0.69999 0.29993,1.19999 0.59998,1.6c0.29993,0.4 0.69995,0.59999 1.19995,0.59999c0.5,0 0.90003,-0.19999 1.20007,-0.69999s0.5,-1.09999 0.5,-1.80001c0,-0.69999 -0.20007,-1.29998 -0.5,-1.69999c-0.30004,-0.4 -0.70007,-0.59999 -1.20007,-0.59999c-0.29993,0 -0.69995,0.09999 -1.09997,0.19999l0.30004,-2.29999c0.59998,0 1.09998,-0.10002 1.5,-0.5c0.39991,-0.3 0.5,-0.8 0.5,-1.39999c0,-0.5 -0.10009,-0.90001 -0.40002,-1.20001s-0.59998,-0.39999 -1,-0.39999s-0.70007,0.20001 -1,0.5c-0.30005,0.3 -0.5,0.8 -0.5,1.5l-2.20007,-0.5c0.20007,-1.39998 0.70007,-2.4 1.30005,-3s1.5,-0.9 2.5,-0.9c1.09997,0 2,0.4 2.69995,1.2c0.70007,0.8 1,1.7 1,2.7c0,0.70001 -0.09998,1.20001 -0.3999,1.8c-0.30005,0.5 -0.70008,1 -1.30005,1.39999c0.69995,0.2 1.30005,0.60001 1.69995,1.2c0.40002,0.60001 0.70007,1.40001 0.70007,2.40001c0,1.39999 -0.40002,2.5 -1.20007,3.39999c-0.79993,0.90001 -1.79993,1.30001 -2.8999,1.30001c-1.1001,0 -2,-0.4 -2.70008,-1.10003s-1.40002,-2.09999 -1.59997,-3.39997l0,-0.00002z" id="svg_171"/>
    <path d="m1049.45006,156.3l0,2.7l-8.30005,0c0.1001,-1 0.40002,-2 0.80005,-2.89999c0.5,-0.90001 1.30005,-2.10001 2.69995,-3.60001c1,-1.2 1.70007,-2 1.90002,-2.39999c0.40003,-0.60001 0.5,-1.20002 0.5,-1.80001c0,-0.69999 -0.09997,-1.19999 -0.40002,-1.5s-0.69995,-0.5 -1.19995,-0.5c-1,0 -1.59998,0.80001 -1.69995,2.30001l-2.30005,-0.30001c0.09997,-1.5 0.59997,-2.69999 1.30005,-3.39999c0.69995,-0.7 1.59997,-1.1 2.79992,-1.1c1.30005,0 2.30005,0.39999 2.90003,1.3s1,1.8 1,2.90001c0,0.6 -0.09998,1.19999 -0.30005,1.79998c-0.19995,0.59999 -0.3999,1.20002 -0.79993,1.70002s-0.90002,1.29998 -1.70007,2.19999c-0.79993,0.90001 -1.19995,1.40001 -1.3999,1.7c-0.20008,0.3 -0.40003,0.5 -0.5,0.8l4.69995,0l0,0.10001l0,-0.00002z" id="svg_172"/>
   </g>
   <g id="svg_92">
    <path id="svg_176" d="m75.19997,54.84999l-2.4,0l0,-10.89999c-0.9,1 -1.9,1.69999 -3.1,2.19999l0,-2.6c0.7,-0.30001 1.3,-0.7 2,-1.4c0.7,-0.69999 1.2,-1.49999 1.5,-2.39999l1.9,0l0,15.1l0.1,0l0,-0.00001z"/>
   </g>
   <g id="svg_179">
    <path id="svg_180" d="m131.09997,50.84999l2.3,-0.3c0.1,0.69999 0.3,1.19999 0.6,1.6c0.3,0.4 0.7,0.59999 1.2,0.59999c0.5,0 0.9,-0.19999 1.2,-0.69999s0.5,-1.09999 0.5,-1.80001c0,-0.69999 -0.2,-1.29998 -0.5,-1.69999c-0.3,-0.4 -0.7,-0.59999 -1.2,-0.59999c-0.3,0 -0.7,0.09999 -1.1,0.19999l0.3,-2.29999c0.6,0 1.1,-0.10002 1.5,-0.5c0.4,-0.3 0.5,-0.8 0.5,-1.39999c0,-0.5 -0.1,-0.90001 -0.4,-1.20001s-0.6,-0.39999 -1,-0.39999s-0.7,0.20001 -1,0.5c-0.3,0.3 -0.5,0.8 -0.5,1.5l-2.2,-0.5c0.2,-1.39998 0.7,-2.4 1.3,-3s1.5,-0.9 2.5,-0.9c1.1,0 2,0.4 2.7,1.2c0.7,0.8 1,1.7 1,2.7c0,0.70001 -0.10001,1.20001 -0.4,1.8c-0.3,0.5 -0.7,1 -1.3,1.39999c0.7,0.2 1.3,0.60001 1.7,1.2c0.39999,0.60001 0.7,1.40001 0.7,2.40001c0,1.39999 -0.4,2.5 -1.2,3.39999c-0.8,0.90001 -1.8,1.30001 -2.9,1.30001c-1.1,0 -2,-0.4 -2.7,-1.10003s-1.5,-2.09999 -1.6,-3.39997l0,-0.00002z"/>
   </g>
   <g id="svg_183">
    <path id="svg_184" d="m194.59997,50.95l2.40001,-0.30001c0.09999,0.70001 0.29998,1.20001 0.59999,1.5s0.69999,0.60002 1.1,0.60002c0.5,0 0.9,-0.19999 1.30001,-0.69999c0.29998,-0.5 0.5,-1.20001 0.5,-2.20001c0,-0.90001 -0.20002,-1.60001 -0.5,-2.10001c-0.30001,-0.5 -0.80001,-0.7 -1.30001,-0.7c-0.69999,0 -1.29999,0.4 -1.79999,1.09999l-1.89999,-0.29999l1.2,-7.8l6.19999,0l0,2.7l-4.39997,0l-0.40001,2.6c0.5,-0.29998 1.1,-0.5 1.6,-0.5c1,0 1.80001,0.4 2.5,1.1c0.9,1 1.30001,2.3 1.30001,3.9c0,1.29999 -0.40001,2.5 -1.10003,3.6c-0.69999,1.10002 -1.79998,1.69999 -3.1,1.69999c-1.09999,0 -2,-0.39998 -2.7,-1.09997c-0.89999,-0.70002 -1.39999,-1.70002 -1.5,-3.10002l-0.00001,0z"/>
   </g>
   <g id="svg_187">
    <path id="svg_188" d="m256.99997,42.64999l0,-2.7l8.1,0l0,2.1c-0.69999,0.8 -1.29999,1.90001 -2,3.40001c-0.69999,1.5 -1.19999,3.09999 -1.6,4.69999c-0.4,1.70001 -0.59999,3.20001 -0.59999,4.59999l-2.30001,0c0.09999,-2.09999 0.4,-4.29999 1.09999,-6.39998c0.70002,-2.10002 1.5,-4 2.70002,-5.8l-5.40001,0l0,0.10001l0,-0.00002z"/>
   </g>
   <g id="svg_192">
    <path id="svg_193" d="m329.19999,51.34999l2.29999,-0.3c0.10001,1.1 0.60001,1.69999 1.30002,1.69999c0.5,0 1,-0.29998 1.29999,-0.79998c0.30001,-0.60001 0.6,-1.70002 0.6,-3.40001c-0.29999,0.40001 -0.6,0.69999 -1,0.90001s-0.79999,0.29998 -1.20001,0.29998c-0.89999,0 -1.79999,-0.39998 -2.5,-1.29998c-0.69998,-0.90001 -1.09998,-2.10001 -1.09998,-3.60001c0,-1.60001 0.4,-2.8 1.09998,-3.7s1.70001,-1.4 2.80002,-1.4c1.19998,0 2.29999,0.6 3.10004,1.8s1.19995,3.1 1.19995,5.8c0,2.8 -0.39997,4.7 -1.29999,5.89999c-0.80002,1.20001 -1.89996,1.80001 -3.30002,1.80001c-0.89999,0 -1.69998,-0.30001 -2.29999,-0.9c-0.39999,-0.6 -0.79999,-1.5 -1,-2.8zm5.4,-6.3c0,-0.9 -0.19999,-1.7 -0.5,-2.2s-0.79999,-0.8 -1.19999,-0.8c-0.40002,0 -0.80001,0.19999 -1.1,0.6c-0.30002,0.4 -0.4,1.09999 -0.4,2.09999s0.19999,1.70002 0.5,2.10002c0.29999,0.5 0.69999,0.7 1.19999,0.7c0.39999,0 0.80001,-0.2 1.1,-0.59999c0.20001,-0.40001 0.4,-1 0.4,-1.90001l0,-0.00001z"/>
   </g>
   <g id="svg_197">
    <path id="svg_198" d="m394.44998,54.84999l-2.4,0l0,-10.89999c-0.89999,1 -1.89999,1.69999 -3.1,2.19999l0,-2.6c0.70001,-0.30001 1.30001,-0.7 2,-1.4c0.70001,-0.69999 1.20001,-1.49999 1.5,-2.39999l1.89999,0l0,15.1l0.10001,0l0,-0.00001z"/>
    <path id="svg_199" d="m403.04998,54.84999l-2.39999,0l0,-10.89999c-0.9,1 -1.9,1.69999 -3.10001,2.19999l0,-2.6c0.70001,-0.30001 1.29999,-0.7 2,-1.4c0.70001,-0.69999 1.20001,-1.49999 1.5,-2.39999l1.9,0l0,15.1l0.1,0l0,-0.00001z"/>
   </g>
   <g id="svg_203">
    <path id="svg_204" d="m455.49999,54.84999l-2.4,0l0,-10.89999c-0.89999,1 -1.89999,1.69999 -3.1,2.19999l0,-2.6c0.70001,-0.30001 1.30001,-0.7 2,-1.4c0.70001,-0.69999 1.20001,-1.49999 1.5,-2.39999l1.89999,0l0,15.1l0.10001,0l0,-0.00001z"/>
    <path id="svg_205" d="m458.99999,50.84999l2.30001,-0.3c0.09998,0.69999 0.29999,1.19999 0.59998,1.6c0.30002,0.4 0.70001,0.59999 1.20001,0.59999c0.5,0 0.9,-0.19999 1.20001,-0.69999s0.5,-1.09999 0.5,-1.80001c0,-0.69999 -0.20001,-1.29998 -0.5,-1.69999c-0.30001,-0.4 -0.70001,-0.59999 -1.20001,-0.59999c-0.29999,0 -0.70001,0.09999 -1.1,0.19999l0.30001,-2.29999c0.59998,0 1.09998,-0.10002 1.5,-0.5c0.4,-0.3 0.5,-0.8 0.5,-1.39999c0,-0.5 -0.1,-0.90001 -0.40002,-1.20001s-0.59998,-0.39999 -1,-0.39999s-0.69998,0.20001 -1,0.5c-0.29999,0.3 -0.5,0.8 -0.5,1.5l-2.19998,-0.5c0.19998,-1.39998 0.69998,-2.4 1.29999,-3s1.5,-0.9 2.5,-0.9c1.10003,0 2,0.4 2.70001,1.2c0.69998,0.8 1,1.7 1,2.7c0,0.70001 -0.10001,1.20001 -0.39996,1.8c-0.30005,0.5 -0.70002,1 -1.30005,1.39999c0.70001,0.2 1.30005,0.60001 1.70001,1.2c0.39999,0.60001 0.69998,1.40001 0.69998,2.40001c0,1.39999 -0.39999,2.5 -1.19998,3.39999c-0.80002,0.90001 -1.80002,1.30001 -2.89996,1.30001c-1.10004,0 -2,-0.4 -2.70002,-1.10003s-1.5,-2.09999 -1.60003,-3.39997l0,-0.00002z"/>
   </g>
   <g id="svg_209">
    <path id="svg_210" d="m518.89998,54.84999l-2.4,0l0,-10.89999c-0.89999,1 -1.89999,1.69999 -3.1,2.19999l0,-2.6c0.70001,-0.30001 1.30001,-0.7 2,-1.4c0.70001,-0.69999 1.20001,-1.49999 1.5,-2.39999l1.89999,0l0,15.1l0.10001,0l0,-0.00001z"/>
    <path id="svg_211" d="m522.49998,50.95l2.4,-0.30001c0.1,0.70001 0.30001,1.20001 0.6,1.5s0.70001,0.60002 1.10001,0.60002c0.5,0 0.89999,-0.19999 1.29999,-0.69999c0.30001,-0.5 0.5,-1.20001 0.5,-2.20001c0,-0.90001 -0.19999,-1.60001 -0.5,-2.10001c-0.29999,-0.5 -0.79999,-0.7 -1.29999,-0.7c-0.70001,0 -1.30002,0.4 -1.80002,1.09999l-1.89999,-0.29999l1.20001,-7.8l6.19998,0l0,2.7l-4.39999,0l-0.4,2.6c0.5,-0.29998 1.10001,-0.5 1.60001,-0.5c1,0 1.79999,0.4 2.5,1.1c0.89999,1 1.29999,2.3 1.29999,3.9c0,1.29999 -0.39997,2.5 -1.10001,3.6c-0.69998,1.10002 -1.79999,1.69999 -3.09998,1.69999c-1.1,0 -2,-0.39998 -2.70001,-1.09997c-0.89999,-0.70002 -1.39999,-1.70002 -1.5,-3.10002z"/>
   </g>
   <g id="svg_215">
    <path id="svg_216" d="m591.19995,54.84999l-2.40003,0l0,-10.89999c-0.89996,1 -1.89996,1.69999 -3.09997,2.19999l0,-2.6c0.70001,-0.30001 1.29998,-0.7 2,-1.4c0.70001,-0.69999 1.20001,-1.49999 1.5,-2.39999l1.90002,0l0,15.1l0.09998,0l0,-0.00001z"/>
    <path id="svg_217" d="m594.79998,42.64999l0,-2.7l8.09998,0l0,2.1c-0.69995,0.8 -1.29999,1.90001 -2,3.40001c-0.69995,1.5 -1.19995,3.09999 -1.59998,4.69999c-0.40002,1.70001 -0.59997,3.20001 -0.59997,4.59999l-2.30005,0c0.10003,-2.09999 0.40002,-4.29999 1.10003,-6.39998c0.70002,-2.10002 1.5,-4 2.70002,-5.8l-5.40003,0l0,0.10001l0,-0.00002z"/>
   </g>
   <g id="svg_221">
    <path id="svg_222" d="m652.99993,54.84999l-2.40003,0l0,-10.89999c-0.89996,1 -1.89996,1.69999 -3.09997,2.19999l0,-2.6c0.70001,-0.30001 1.29998,-0.7 2,-1.4c0.70001,-0.69999 1.20001,-1.49999 1.5,-2.39999l1.90002,0l0,15.1l0.09998,0l0,-0.00001z"/>
    <path id="svg_223" d="m656.59996,51.34999l2.29999,-0.3c0.10004,1.1 0.60004,1.69999 1.29999,1.69999c0.5,0 1,-0.29998 1.30005,-0.79998c0.29998,-0.60001 0.59997,-1.70002 0.59997,-3.40001c-0.29999,0.40001 -0.59997,0.69999 -1,0.90001s-0.79999,0.29998 -1.20001,0.29998c-0.89996,0 -1.79999,-0.39998 -2.5,-1.29998c-0.70001,-0.90001 -1.09998,-2.10001 -1.09998,-3.60001c0,-1.60001 0.39997,-2.8 1.09998,-3.7s1.70001,-1.4 2.79999,-1.4c1.20001,0 2.30005,0.6 3.10004,1.8s1.20001,3.1 1.20001,5.8c0,2.8 -0.40003,4.7 -1.30005,5.89999c-0.79999,1.20001 -1.89996,1.80001 -3.29999,1.80001c-0.89996,0 -1.70001,-0.30001 -2.29999,-0.9c-0.40002,-0.6 -0.79998,-1.5 -1,-2.8zm5.40003,-6.3c0,-0.9 -0.20002,-1.7 -0.5,-2.2s-0.80005,-0.8 -1.20002,-0.8c-0.40002,0 -0.79998,0.19999 -1.10003,0.6c-0.29999,0.4 -0.39997,1.09999 -0.39997,2.09999s0.20002,1.70002 0.5,2.10002c0.29999,0.5 0.70002,0.7 1.20002,0.7c0.39996,0 0.79998,-0.2 1.09997,-0.59999c0.20001,-0.40001 0.40003,-1 0.40003,-1.90001l0,-0.00001z"/>
   </g>
   <g id="svg_227">
    <path id="svg_228" d="m718.14997,52.14999l0,2.7l-8.29999,0c0.09997,-1 0.39996,-2 0.79999,-2.89999c0.5,-0.90001 1.29998,-2.10001 2.70001,-3.60001c1,-1.2 1.70001,-2 1.89996,-2.39999c0.40002,-0.60001 0.5,-1.20002 0.5,-1.80001c0,-0.69999 -0.09998,-1.19999 -0.39996,-1.5s-0.70001,-0.5 -1.20001,-0.5c-1,0 -1.59998,0.80001 -1.70002,2.30001l-2.29998,-0.30001c0.09997,-1.5 0.59997,-2.69999 1.29998,-3.39999c0.70002,-0.7 1.60004,-1.1 2.79999,-1.1c1.30005,0 2.30005,0.39999 2.90003,1.3s1,1.8 1,2.90001c0,0.6 -0.09998,1.19999 -0.29999,1.79998c-0.20001,0.59999 -0.40003,1.20002 -0.79999,1.70002s-0.90002,1.29998 -1.70001,2.19999c-0.79999,0.90001 -1.20001,1.40001 -1.40003,1.7c-0.20001,0.3 -0.39996,0.5 -0.5,0.8l4.70002,0l0,0.10001l0,-0.00002z"/>
    <path id="svg_229" d="m725.75,54.84999l-2.40002,0l0,-10.89999c-0.89996,1 -1.89996,1.69999 -3.09998,2.19999l0,-2.6c0.70001,-0.30001 1.29999,-0.7 2,-1.4c0.70001,-0.69999 1.20001,-1.49999 1.5,-2.39999l1.90003,0l0,15.1l0.09997,0l0,-0.00001z"/>
   </g>
   <g id="svg_238">
    <path id="svg_239" d="m781.09996,52.14999l0,2.7l-8.29999,0c0.09997,-1 0.39996,-2 0.79999,-2.89999c0.5,-0.90001 1.29998,-2.10001 2.70001,-3.60001c1,-1.2 1.70001,-2 1.89996,-2.39999c0.40002,-0.60001 0.5,-1.20002 0.5,-1.80001c0,-0.69999 -0.09998,-1.19999 -0.39996,-1.5s-0.70001,-0.5 -1.20001,-0.5c-1,0 -1.59998,0.80001 -1.70002,2.30001l-2.29998,-0.30001c0.09997,-1.5 0.59997,-2.69999 1.29998,-3.39999c0.70002,-0.7 1.60004,-1.1 2.79999,-1.1c1.30005,0 2.30005,0.39999 2.90003,1.3s1,1.8 1,2.90001c0,0.6 -0.09998,1.19999 -0.29999,1.79998c-0.20001,0.59999 -0.40003,1.20002 -0.79999,1.70002s-0.90002,1.29998 -1.70001,2.19999c-0.79999,0.90001 -1.20001,1.40001 -1.40003,1.7c-0.20001,0.3 -0.39996,0.5 -0.5,0.8l4.70002,0l0,0.10001l0,-0.00002z"/>
    <path id="svg_240" d="m782.59996,50.84999l2.29998,-0.3c0.10004,0.69999 0.29999,1.19999 0.60004,1.6c0.29999,0.4 0.69995,0.59999 1.19995,0.59999c0.5,0 0.90003,-0.19999 1.20001,-0.69999s0.5,-1.09999 0.5,-1.80001c0,-0.69999 -0.20001,-1.29998 -0.5,-1.69999c-0.29998,-0.4 -0.70001,-0.59999 -1.20001,-0.59999c-0.29999,0 -0.69995,0.09999 -1.09997,0.19999l0.29998,-2.29999c0.60004,0 1.10004,-0.10002 1.5,-0.5c0.40003,-0.3 0.5,-0.8 0.5,-1.39999c0,-0.5 -0.09997,-0.90001 -0.39996,-1.20001s-0.60004,-0.39999 -1,-0.39999s-0.70001,0.20001 -1,0.5c-0.30005,0.3 -0.5,0.8 -0.5,1.5l-2.20001,-0.5c0.20001,-1.39998 0.70001,-2.4 1.29999,-3s1.5,-0.9 2.5,-0.9c1.09997,0 2,0.4 2.70001,1.2c0.70001,0.8 1,1.7 1,2.7c0,0.70001 -0.10004,1.20001 -0.40002,1.8c-0.29999,0.5 -0.70002,1 -1.29999,1.39999c0.70001,0.2 1.29999,0.60001 1.70001,1.2c0.39996,0.60001 0.70001,1.40001 0.70001,2.40001c0,1.39999 -0.40002,2.5 -1.20001,3.39999c-0.79999,0.90001 -1.79999,1.30001 -2.90002,1.30001c-1.09998,0 -2,-0.4 -2.70002,-1.10003s-1.5,-2.09999 -1.59997,-3.39997l0,-0.00002z"/>
   </g>
   <g id="svg_264">
    <path id="svg_265" d="m851.99992,52.14999l0,2.7l-8.29999,0c0.09997,-1 0.39996,-2 0.79999,-2.89999c0.5,-0.90001 1.29998,-2.10001 2.70001,-3.60001c1,-1.2 1.70001,-2 1.89996,-2.39999c0.40002,-0.60001 0.5,-1.20002 0.5,-1.80001c0,-0.69999 -0.09998,-1.19999 -0.39996,-1.5s-0.70001,-0.5 -1.20001,-0.5c-1,0 -1.59998,0.80001 -1.70002,2.30001l-2.29998,-0.30001c0.09997,-1.5 0.59997,-2.69999 1.29998,-3.39999c0.70002,-0.7 1.60004,-1.1 2.79999,-1.1c1.30005,0 2.30005,0.39999 2.90003,1.3s1,1.8 1,2.90001c0,0.6 -0.09998,1.19999 -0.29999,1.79998c-0.20001,0.59999 -0.40003,1.20002 -0.79999,1.70002s-0.90002,1.29998 -1.70001,2.19999c-0.79999,0.90001 -1.20001,1.40001 -1.40003,1.7c-0.20001,0.3 -0.39996,0.5 -0.5,0.8l4.70002,0l0,0.10001l0,-0.00002z"/>
    <path id="svg_266" d="m853.59995,50.95l2.40003,-0.30001c0.09997,0.70001 0.29998,1.20001 0.59997,1.5s0.70001,0.60002 1.09998,0.60002c0.5,0 0.90002,-0.19999 1.30005,-0.69999c0.29998,-0.5 0.5,-1.20001 0.5,-2.20001c0,-0.90001 -0.20002,-1.60001 -0.5,-2.10001c-0.30005,-0.5 -0.80005,-0.7 -1.30005,-0.7c-0.69995,0 -1.29999,0.4 -1.79999,1.09999l-1.89996,-0.29999l1.19995,-7.8l6.20001,0l0,2.7l-4.39996,0l-0.40003,2.6c0.5,-0.29998 1.09998,-0.5 1.59998,-0.5c1,0 1.80005,0.4 2.5,1.1c0.90002,1 1.30005,2.3 1.30005,3.9c0,1.29999 -0.40003,2.5 -1.10004,3.6c-0.70001,1.10002 -1.79999,1.69999 -3.09997,1.69999c-1.10004,0 -2,-0.39998 -2.70002,-1.09997c-0.90002,-0.70002 -1.40002,-1.70002 -1.5,-3.10002z"/>
   </g>
   <g id="svg_270">
    <path id="svg_271" d="m914.99995,52.14999l0,2.7l-8.29999,0c0.09997,-1 0.39996,-2 0.79999,-2.89999c0.5,-0.90001 1.29998,-2.10001 2.70001,-3.60001c1,-1.2 1.70001,-2 1.89996,-2.39999c0.40002,-0.60001 0.5,-1.20002 0.5,-1.80001c0,-0.69999 -0.09998,-1.19999 -0.39996,-1.5s-0.70001,-0.5 -1.20001,-0.5c-1,0 -1.59998,0.80001 -1.70002,2.30001l-2.29998,-0.30001c0.09997,-1.5 0.59997,-2.69999 1.29998,-3.39999c0.70002,-0.7 1.60004,-1.1 2.79999,-1.1c1.30005,0 2.30005,0.39999 2.90003,1.3s1,1.8 1,2.90001c0,0.6 -0.09998,1.19999 -0.29999,1.79998c-0.20001,0.59999 -0.40003,1.20002 -0.79999,1.70002s-0.90002,1.29998 -1.70001,2.19999c-0.79999,0.90001 -1.20001,1.40001 -1.40003,1.7c-0.20001,0.3 -0.39996,0.5 -0.5,0.8l4.70002,0l0,0.10001l0,-0.00002z"/>
    <path id="svg_272" d="m916.59998,42.64999l0,-2.7l8.09998,0l0,2.1c-0.69995,0.8 -1.29999,1.90001 -2,3.40001c-0.69995,1.5 -1.19995,3.09999 -1.59998,4.69999c-0.40002,1.70001 -0.59997,3.20001 -0.59997,4.59999l-2.30005,0c0.10003,-2.09999 0.40002,-4.29999 1.10003,-6.39998c0.70002,-2.10002 1.5,-4 2.70002,-5.8l-5.40003,0l0,0.10001l0,-0.00002z"/>
   </g>
   <g id="svg_276">
    <path id="svg_277" d="m977.99993,52.14999l0,2.7l-8.29999,0c0.09997,-1 0.39996,-2 0.79999,-2.89999c0.5,-0.90001 1.29998,-2.10001 2.70001,-3.60001c1,-1.2 1.70001,-2 1.89996,-2.39999c0.40002,-0.60001 0.5,-1.20002 0.5,-1.80001c0,-0.69999 -0.09998,-1.19999 -0.39996,-1.5s-0.70001,-0.5 -1.20001,-0.5c-1,0 -1.59998,0.80001 -1.70002,2.30001l-2.29998,-0.30001c0.09997,-1.5 0.59997,-2.69999 1.29998,-3.39999c0.70002,-0.7 1.60004,-1.1 2.79999,-1.1c1.30005,0 2.30005,0.39999 2.90003,1.3s1,1.8 1,2.90001c0,0.6 -0.09998,1.19999 -0.29999,1.79998c-0.20001,0.59999 -0.40003,1.20002 -0.79999,1.70002s-0.90002,1.29998 -1.70001,2.19999c-0.79999,0.90001 -1.20001,1.40001 -1.40003,1.7c-0.20001,0.3 -0.39996,0.5 -0.5,0.8l4.70002,0l0,0.10001l0,-0.00002z"/>
    <path id="svg_278" d="m979.59996,51.34999l2.29999,-0.3c0.10004,1.1 0.60004,1.69999 1.29999,1.69999c0.5,0 1,-0.29998 1.30005,-0.79998c0.29998,-0.60001 0.59997,-1.70002 0.59997,-3.40001c-0.29999,0.40001 -0.59997,0.69999 -1,0.90001s-0.79999,0.29998 -1.20001,0.29998c-0.89996,0 -1.79999,-0.39998 -2.5,-1.29998c-0.70001,-0.90001 -1.09998,-2.10001 -1.09998,-3.60001c0,-1.60001 0.39997,-2.8 1.09998,-3.7s1.70001,-1.4 2.79999,-1.4c1.20001,0 2.30005,0.6 3.10004,1.8s1.20001,3.1 1.20001,5.8c0,2.8 -0.40003,4.7 -1.30005,5.89999c-0.79999,1.20001 -1.89996,1.80001 -3.29999,1.80001c-0.89996,0 -1.70001,-0.30001 -2.29999,-0.9c-0.40002,-0.6 -0.79998,-1.5 -1,-2.8zm5.40003,-6.3c0,-0.9 -0.20002,-1.7 -0.5,-2.2s-0.80005,-0.8 -1.20002,-0.8c-0.40002,0 -0.79998,0.19999 -1.10003,0.6c-0.29999,0.4 -0.39997,1.09999 -0.39997,2.09999s0.20002,1.70002 0.5,2.10002c0.29999,0.5 0.70002,0.7 1.20002,0.7c0.39996,0 0.79998,-0.2 1.09997,-0.59999c0.20001,-0.40001 0.40003,-1 0.40003,-1.90001l0,-0.00001z"/>
   </g>
   <g id="svg_302">
    <path id="svg_303" d="m1032.75002,50.84999l2.29999,-0.3c0.10004,0.69999 0.29999,1.19999 0.60004,1.6c0.29998,0.4 0.69995,0.59999 1.19995,0.59999c0.5,0 0.90002,-0.19999 1.20001,-0.69999s0.5,-1.09999 0.5,-1.80001c0,-0.69999 -0.20001,-1.29998 -0.5,-1.69999c-0.29999,-0.4 -0.70001,-0.59999 -1.20001,-0.59999c-0.29999,0 -0.69995,0.09999 -1.09998,0.19999l0.29999,-2.29999c0.60004,0 1.10004,-0.10002 1.5,-0.5c0.40002,-0.3 0.5,-0.8 0.5,-1.39999c0,-0.5 -0.09998,-0.90001 -0.39996,-1.20001s-0.60004,-0.39999 -1,-0.39999s-0.70002,0.20001 -1,0.5c-0.30005,0.3 -0.5,0.8 -0.5,1.5l-2.20002,-0.5c0.20002,-1.39998 0.70002,-2.4 1.29999,-3s1.5,-0.9 2.5,-0.9c1.09998,0 2,0.4 2.70001,1.2c0.70002,0.8 1,1.7 1,2.7c0,0.70001 -0.10003,1.20001 -0.40002,1.8c-0.29999,0.5 -0.70001,1 -1.29999,1.39999c0.70001,0.2 1.29999,0.60001 1.70001,1.2c0.39997,0.60001 0.70002,1.40001 0.70002,2.40001c0,1.39999 -0.40003,2.5 -1.20002,3.39999c-0.79998,0.90001 -1.79998,1.30001 -2.90002,1.30001c-1.09998,0 -2,-0.4 -2.70001,-1.10003s-1.5,-2.09999 -1.59998,-3.39997l0,-0.00002z"/>
    <path id="svg_304" d="m1048.45003,54.84999l-2.40002,0l0,-10.89999c-0.89996,1 -1.89996,1.69999 -3.09998,2.19999l0,-2.6c0.70001,-0.30001 1.29999,-0.7 2,-1.4c0.70001,-0.69999 1.20001,-1.49999 1.5,-2.39999l1.90003,0l0,15.1l0.09997,0l0,-0.00001z"/>
   </g>
  </g>
 </g>
 <g display="inline">
  <title>HexVents</title>
  <g id="bxGfx_hexVents">
   <g id="svg_86">
    <polygon points="1234.5,140 1225,134.5 1225,131.8000030517578 1225,129 1225,126.30000305175781 1225,123.5 1234.5,118 1244,123.5 1244,126.30000305175781 1244,129 1244,131.8000030517578 1244,134.5 " id="svg_72"/>
    <polygon points="1247.5,162 1238,156.5 1238,153.8000030517578 1238,151 1238,148.3000030517578 1238,145.5 1247.5,140 1257,145.5 1257,148.3000030517578 1257,151 1257,153.8000030517578 1257,156.5 " id="svg_73"/>
    <polygon points="1247.5,75 1238,69.5 1238,66.80000305175781 1238,64 1238,61.30000305175781 1238,58.5 1247.5,53 1257,58.5 1257,61.30000305175781 1257,64 1257,66.80000305175781 1257,69.5 " id="svg_74"/>
    <polygon points="1234.5,96 1225,90.5 1225,87.80000305175781 1225,85 1225,82.30000305175781 1225,79.5 1234.5,74 1244,79.5 1244,82.30000305175781 1244,85 1244,87.80000305175781 1244,90.5 " id="svg_75"/>
    <polygon points="1247.5,118 1238,112.5 1238,109.80000305175781 1238,107 1238,104.30000305175781 1238,101.5 1247.5,96 1257,101.5 1257,104.30000305175781 1257,107 1257,109.80000305175781 1257,112.5 " id="svg_76"/>
    <polygon points="1247.5,31 1238,25.5 1238,22.800003051757812 1238,20 1238,17.300003051757812 1238,14.5 1247.5,9 1257,14.5 1257,17.300003051757812 1257,20 1257,22.800003051757812 1257,25.5 " id="svg_77"/>
    <polygon points="1234.5,53 1225,47.5 1225,44.80000305175781 1225,42 1225,39.30000305175781 1225,36.5 1234.5,31 1244,36.5 1244,39.30000305175781 1244,42 1244,44.80000305175781 1244,47.5 " id="svg_78"/>
   </g>
   <g id="svg_87">
    <polygon points="78.5,32 69,26.5 69,23.800003051757812 69,21 69,18.300003051757812 69,15.5 78.5,10 88,15.5 88,18.300003051757812 88,21 88,23.800003051757812 88,26.5 " id="svg_1"/>
    <polygon points="104.5,32 95,26.5 95,23.800003051757812 95,21 95,18.300003051757812 95,15.5 104.5,10 114,15.5 114,18.300003051757812 114,21 114,23.800003051757812 114,26.5 " id="svg_2"/>
    <polygon points="156.5,32 147,26.5 147,23.800003051757812 147,21 147,18.300003051757812 147,15.5 156.5,10 166,15.5 166,18.300003051757812 166,21 166,23.800003051757812 166,26.5 " id="svg_3"/>
    <polygon points="182.5,32 173,26.5 173,23.800003051757812 173,21 173,18.300003051757812 173,15.5 182.5,10 192,15.5 192,18.300003051757812 192,21 192,23.800003051757812 192,26.5 " id="svg_4"/>
    <polygon points="130.5,32 121,26.5 121,23.800003051757812 121,21 121,18.300003051757812 121,15.5 130.5,10 140,15.5 140,18.300003051757812 140,21 140,23.800003051757812 140,26.5 " id="svg_5"/>
    <polygon points="52.5,32 43,26.5 43,23.800003051757812 43,21 43,18.300003051757812 43,15.5 52.5,10 62,15.5 62,18.300003051757812 62,21 62,23.800003051757812 62,26.5 " id="svg_6"/>
    <polygon points="234.5,32 225,26.5 225,23.800003051757812 225,21 225,18.300003051757812 225,15.5 234.5,10 244,15.5 244,18.300003051757812 244,21 244,23.800003051757812 244,26.5 " id="svg_7"/>
    <polygon points="260.5,32 251,26.5 251,23.800003051757812 251,21 251,18.300003051757812 251,15.5 260.5,10 270,15.5 270,18.300003051757812 270,21 270,23.800003051757812 270,26.5 " id="svg_8"/>
    <polygon points="312.5,32 303,26.5 303,23.800003051757812 303,21 303,18.300003051757812 303,15.5 312.5,10 322,15.5 322,18.300003051757812 322,21 322,23.800003051757812 322,26.5 " id="svg_9"/>
    <polygon points="338.5,32 329,26.5 329,23.800003051757812 329,21 329,18.300003051757812 329,15.5 338.5,10 348,15.5 348,18.300003051757812 348,21 348,23.800003051757812 348,26.5 " id="svg_10"/>
    <polygon points="286.5,32 277,26.5 277,23.800003051757812 277,21 277,18.300003051757812 277,15.5 286.5,10 296,15.5 296,18.300003051757812 296,21 296,23.800003051757812 296,26.5 " id="svg_11"/>
    <polygon points="208.5,32 199,26.5 199,23.800003051757812 199,21 199,18.300003051757812 199,15.5 208.5,10 218,15.5 218,18.300003051757812 218,21 218,23.800003051757812 218,26.5 " id="svg_12"/>
    <polygon points="390.5,32 381,26.5 381,23.800003051757812 381,21 381,18.300003051757812 381,15.5 390.5,10 400,15.5 400,18.300003051757812 400,21 400,23.800003051757812 400,26.5 " id="svg_13"/>
    <polygon points="416.5,32 407,26.5 407,23.800003051757812 407,21 407,18.300003051757812 407,15.5 416.5,10 426,15.5 426,18.300003051757812 426,21 426,23.800003051757812 426,26.5 " id="svg_14"/>
    <polygon points="468.5,32 459,26.5 459,23.800003051757812 459,21 459,18.300003051757812 459,15.5 468.5,10 478,15.5 478,18.300003051757812 478,21 478,23.800003051757812 478,26.5 " id="svg_15"/>
    <polygon points="494.5,32 485,26.5 485,23.800003051757812 485,21 485,18.300003051757812 485,15.5 494.5,10 504,15.5 504,18.300003051757812 504,21 504,23.800003051757812 504,26.5 " id="svg_16"/>
    <polygon points="442.5,32 433,26.5 433,23.800003051757812 433,21 433,18.300003051757812 433,15.5 442.5,10 452,15.5 452,18.300003051757812 452,21 452,23.800003051757812 452,26.5 " id="svg_17"/>
    <polygon points="364.5,32 355,26.5 355,23.800003051757812 355,21 355,18.300003051757812 355,15.5 364.5,10 374,15.5 374,18.300003051757812 374,21 374,23.800003051757812 374,26.5 " id="svg_18"/>
    <polygon points="546.5,32 537,26.5 537,23.800003051757812 537,21 537,18.300003051757812 537,15.5 546.5,10 556,15.5 556,18.300003051757812 556,21 556,23.800003051757812 556,26.5 " id="svg_19"/>
    <polygon points="572.5,32 563,26.5 563,23.800003051757812 563,21 563,18.300003051757812 563,15.5 572.5,10 582,15.5 582,18.300003051757812 582,21 582,23.800003051757812 582,26.5 " id="svg_20"/>
    <polygon points="624.5,32 615,26.5 615,23.800003051757812 615,21 615,18.300003051757812 615,15.5 624.5,10 634,15.5 634,18.300003051757812 634,21 634,23.800003051757812 634,26.5 " id="svg_21"/>
    <polygon points="650.5,32 641,26.5 641,23.800003051757812 641,21 641,18.300003051757812 641,15.5 650.5,10 660,15.5 660,18.300003051757812 660,21 660,23.800003051757812 660,26.5 " id="svg_22"/>
    <polygon points="598.5,32 589,26.5 589,23.800003051757812 589,21 589,18.300003051757812 589,15.5 598.5,10 608,15.5 608,18.300003051757812 608,21 608,23.800003051757812 608,26.5 " id="svg_23"/>
    <polygon points="520.5,32 511,26.5 511,23.800003051757812 511,21 511,18.300003051757812 511,15.5 520.5,10 530,15.5 530,18.300003051757812 530,21 530,23.800003051757812 530,26.5 " id="svg_24"/>
    <polygon points="702.5,32 693,26.5 693,23.800003051757812 693,21 693,18.300003051757812 693,15.5 702.5,10 712,15.5 712,18.300003051757812 712,21 712,23.800003051757812 712,26.5 " id="svg_25"/>
    <polygon points="728.5,32 719,26.5 719,23.800003051757812 719,21 719,18.300003051757812 719,15.5 728.5,10 738,15.5 738,18.300003051757812 738,21 738,23.800003051757812 738,26.5 " id="svg_26"/>
    <polygon points="780.5,32 771,26.5 771,23.800003051757812 771,21 771,18.300003051757812 771,15.5 780.5,10 790,15.5 790,18.300003051757812 790,21 790,23.800003051757812 790,26.5 " id="svg_27"/>
    <polygon points="806.5,32 797,26.5 797,23.800003051757812 797,21 797,18.300003051757812 797,15.5 806.5,10 816,15.5 816,18.300003051757812 816,21 816,23.800003051757812 816,26.5 " id="svg_28"/>
    <polygon points="754.5,32 745,26.5 745,23.800003051757812 745,21 745,18.300003051757812 745,15.5 754.5,10 764,15.5 764,18.300003051757812 764,21 764,23.800003051757812 764,26.5 " id="svg_29"/>
    <polygon points="676.5,32 667,26.5 667,23.800003051757812 667,21 667,18.300003051757812 667,15.5 676.5,10 686,15.5 686,18.300003051757812 686,21 686,23.800003051757812 686,26.5 " id="svg_30"/>
    <polygon points="858.5,32 849,26.5 849,23.800003051757812 849,21 849,18.300003051757812 849,15.5 858.5,10 868,15.5 868,18.300003051757812 868,21 868,23.800003051757812 868,26.5 " id="svg_31"/>
    <polygon points="884.5,32 875,26.5 875,23.800003051757812 875,21 875,18.300003051757812 875,15.5 884.5,10 894,15.5 894,18.300003051757812 894,21 894,23.800003051757812 894,26.5 " id="svg_32"/>
    <polygon points="936.5,32 927,26.5 927,23.800003051757812 927,21 927,18.300003051757812 927,15.5 936.5,10 946,15.5 946,18.300003051757812 946,21 946,23.800003051757812 946,26.5 " id="svg_33"/>
    <polygon points="962.5,32 953,26.5 953,23.800003051757812 953,21 953,18.300003051757812 953,15.5 962.5,10 972,15.5 972,18.300003051757812 972,21 972,23.800003051757812 972,26.5 " id="svg_34"/>
    <polygon points="910.5,32 901,26.5 901,23.800003051757812 901,21 901,18.300003051757812 901,15.5 910.5,10 920,15.5 920,18.300003051757812 920,21 920,23.800003051757812 920,26.5 " id="svg_35"/>
    <polygon points="832.5,32 823,26.5 823,23.800003051757812 823,21 823,18.300003051757812 823,15.5 832.5,10 842,15.5 842,18.300003051757812 842,21 842,23.800003051757812 842,26.5 " id="svg_36"/>
    <polygon points="1014.5,32 1005,26.5 1005,23.800003051757812 1005,21 1005,18.300003051757812 1005,15.5 1014.5,10 1024,15.5 1024,18.300003051757812 1024,21 1024,23.800003051757812 1024,26.5 " id="svg_37"/>
    <polygon points="1040.5,32 1031,26.5 1031,23.800003051757812 1031,21 1031,18.300003051757812 1031,15.5 1040.5,10 1050,15.5 1050,18.300003051757812 1050,21 1050,23.800003051757812 1050,26.5 " id="svg_38"/>
    <polygon points="1092.5,32 1083,26.5 1083,23.800003051757812 1083,21 1083,18.300003051757812 1083,15.5 1092.5,10 1102,15.5 1102,18.300003051757812 1102,21 1102,23.800003051757812 1102,26.5 " id="svg_39"/>
    <polygon points="1118.5,32 1109,26.5 1109,23.800003051757812 1109,21 1109,18.300003051757812 1109,15.5 1118.5,10 1128,15.5 1128,18.300003051757812 1128,21 1128,23.800003051757812 1128,26.5 " id="svg_40"/>
    <polygon points="1066.5,32 1057,26.5 1057,23.800003051757812 1057,21 1057,18.300003051757812 1057,15.5 1066.5,10 1076,15.5 1076,18.300003051757812 1076,21 1076,23.800003051757812 1076,26.5 " id="svg_41"/>
    <polygon points="988.5,32 979,26.5 979,23.800003051757812 979,21 979,18.300003051757812 979,15.5 988.5,10 998,15.5 998,18.300003051757812 998,21 998,23.800003051757812 998,26.5 " id="svg_42"/>
    <polygon points="1143.5,32 1134,26.5 1134,23.800003051757812 1134,21 1134,18.300003051757812 1134,15.5 1143.5,10 1153,15.5 1153,18.300003051757812 1153,21 1153,23.800003051757812 1153,26.5 " id="svg_43"/>
    <polygon points="1169.5,32 1160,26.5 1160,23.800003051757812 1160,21 1160,18.300003051757812 1160,15.5 1169.5,10 1179,15.5 1179,18.300003051757812 1179,21 1179,23.800003051757812 1179,26.5 " id="svg_44"/>
    <polygon points="1221.5,32 1212,26.5 1212,23.800003051757812 1212,21 1212,18.300003051757812 1212,15.5 1221.5,10 1231,15.5 1231,18.300003051757812 1231,21 1231,23.800003051757812 1231,26.5 " id="svg_45"/>
    <polygon points="1195.5,32 1186,26.5 1186,23.800003051757812 1186,21 1186,18.300003051757812 1186,15.5 1195.5,10 1205,15.5 1205,18.300003051757812 1205,21 1205,23.800003051757812 1205,26.5 " id="svg_50"/>
   </g>
  </g>
 </g>
 <g display="inline">
  <title>Leds</title>
  <g id="bxGfx_leds">
   <circle cx="15.4" cy="75.6" r="3.605551" id="svg_81"/>
   <circle cx="28.999997" cy="75.6" r="3.605551" id="svg_338"/>
   <circle cx="15.399998" cy="90.000002" r="3.605551" id="svg_339"/>
   <circle cx="28.999997" cy="90.000003" r="3.605551" id="svg_340"/>
  </g>
 </g>
</svg>
